<?xml version="1.0" encoding="UTF-8" standalone="no"?>
<!-- Created with Inkscape (http://www.inkscape.org/) -->

<svg
   width="210mm"
   height="297mm"
   viewBox="0 0 210 297"
   version="1.1"
   id="svg97191"
   sodipodi:docname="celtics symbols final edit.svg"
   inkscape:version="1.1 (c68e22c387, 2021-05-23)"
   xmlns:inkscape="http://www.inkscape.org/namespaces/inkscape"
   xmlns:sodipodi="http://sodipodi.sourceforge.net/DTD/sodipodi-0.dtd"
   xmlns:xlink="http://www.w3.org/1999/xlink"
   xmlns="http://www.w3.org/2000/svg"
   xmlns:svg="http://www.w3.org/2000/svg">
  <sodipodi:namedview
     id="namedview97193"
     pagecolor="#505050"
     bordercolor="#eeeeee"
     borderopacity="1"
     inkscape:pageshadow="0"
     inkscape:pageopacity="0"
     inkscape:pagecheckerboard="0"
     inkscape:document-units="mm"
     showgrid="false"
     inkscape:zoom="0.22627417"
     inkscape:cx="-32268.376"
     inkscape:cy="-7890.8698"
     inkscape:window-width="1920"
     inkscape:window-height="1047"
     inkscape:window-x="-10"
     inkscape:window-y="-10"
     inkscape:window-maximized="1"
     inkscape:current-layer="layer1" />
  <defs
     id="defs97188">
    <rect
       x="-31550"
       y="-7850"
       width="7350"
       height="1575"
       id="rect143417" />
    <style
       id="style42">.cls-1{fill:#b2b2b2;}.cls-2{fill:#ccc;}</style>
    <style
       id="style68">.cls-1{fill:none;stroke:#000;stroke-linecap:round;stroke-miterlimit:10;}</style>
    <style
       id="style138">.cls-1{fill:#b2b2b2;}.cls-2{fill:#ccc;}</style>
    <style
       id="style175">.cls-1{fill:none;stroke:#000;stroke-miterlimit:10;}</style>
    <style
       id="style249">.cls-1{fill:#ccc;}.cls-2{fill:#b2b2b2;}</style>
    <style
       id="style302">.cls-1{fill:none;stroke:#000;stroke-miterlimit:10;}</style>
    <style
       id="style395">.cls-1{fill:#ccc;}.cls-2{fill:#b2b2b2;}</style>
    <style
       id="style420">.cls-1{fill:none;stroke:#000;stroke-miterlimit:10;}</style>
    <style
       id="style501">.cls-1{fill:#ccc;}.cls-2{fill:#b2b2b2;}</style>
    <style
       id="style542">.cls-1{fill:none;stroke:#000;stroke-miterlimit:10;}</style>
    <style
       id="style619">.cls-1{fill:#231f20;}.cls-2{fill:#b2b2b2;}.cls-3{fill:#ccc;}</style>
    <style
       id="style712">.cls-1{fill:none;stroke:#000;stroke-miterlimit:10;}</style>
    <style
       id="style834">.cls-1{fill:#231f20;}.cls-2{fill:#ccc;}.cls-3{fill:#b2b2b2;}</style>
    <style
       id="style891">.cls-1{fill:none;stroke:#000;stroke-miterlimit:10;}</style>
    <style
       id="style1064">.cls-1{fill:#b2b2b2;}.cls-2{fill:#ccc;}</style>
    <style
       id="style1117">.cls-1{fill:none;stroke:#000;stroke-linecap:round;stroke-miterlimit:10;}</style>
    <style
       id="style69">.cls-1{fill:#b2b2b2;}.cls-2{fill:#ccc;}</style>
    <style
       id="style122">.cls-1{fill:none;stroke:#000;stroke-linecap:round;stroke-miterlimit:10;}</style>
    <style
       id="style326">.cls-1{fill:#b2b2b2;}.cls-2{fill:#ccc;}</style>
    <style
       id="style347">.cls-1{fill:none;stroke:#000;stroke-miterlimit:10;}</style>
    <style
       id="style398">.cls-1{fill:none;stroke:#000;stroke-miterlimit:10;}</style>
    <style
       id="style466">.cls-1{fill:#ccc;}.cls-2{fill:#b2b2b2;}</style>
    <style
       id="style499">.cls-1{fill:none;stroke:#000;stroke-miterlimit:10;}</style>
    <style
       id="style106909">.cls-1{fill:#231f20;}.cls-2{fill:#b2b2b2;}.cls-3{fill:#ccc;}</style>
    <symbol
       id="brigid_black">
      <g
         id="brigid_black_transform"
         transform="matrix(10.309111,0,0,11.564585,-10276.574,-1465.786)">
        <path
           d="m 83.73,72.16 c 0,0.67 -0.1,1.33 -0.18,2 -0.08,0.67 -0.2,1.56 -0.34,2.34 -0.09,0.54 -0.2,1.08 -0.31,1.61 -0.11,0.53 -0.3,1.3 -0.48,1.94 a 43.7,43.7 0 0 0 -14.83,0 c -0.66,0.1 -1.32,0.23 -2,0.38 -0.68,0.15 -1.3,0.29 -1.94,0.47 -0.64,0.18 -1.07,0.3 -1.6,0.46 -0.75,0.23 -1.49,0.49 -2.22,0.76 -0.73,0.27 -1.25,0.48 -1.86,0.75 -0.61,0.27 -1.25,0.54 -1.86,0.84 A 43.4,43.4 0 0 0 33.52,109.8 c -0.21,0.63 -0.39,1.28 -0.57,1.92 -0.1,0.38 -0.19,0.75 -0.28,1.13 -0.09,0.38 -0.13,0.55 -0.18,0.82 -0.13,0.54 -0.23,1.09 -0.33,1.63 l -0.41,2.3 -0.29,1.64 -4.19,-0.74 -0.24,-0.07 -3.36,-1.05 0.61,-3.46 c 0,-0.09 0,-0.19 0,-0.28 v 0 a 46.71,46.71 0 0 1 1.49,-6 51.5,51.5 0 0 1 28.79,-31.99 c 0.63,-0.28 1.27,-0.55 1.91,-0.78 0.64,-0.23 1.29,-0.5 1.94,-0.71 0.43,-0.15 0.86,-0.3 1.3,-0.43 0.86,-0.27 1.73,-0.52 2.61,-0.73 0.65,-0.17 1.31,-0.33 2,-0.46 0.69,-0.13 1.32,-0.27 2,-0.38 a 51.63,51.63 0 0 1 17.41,0 z"
           id="path136748" />
        <path
           d="m 126.33,117.4 -3.37,1 -0.27,0.08 v 0 a 52.47,52.47 0 0 1 -15,2.22 51.41,51.41 0 0 1 -31,-10.42 c -0.55,-0.41 -1.08,-0.83 -1.61,-1.28 -0.53,-0.45 -1,-0.85 -1.54,-1.31 -0.54,-0.46 -0.81,-0.72 -1.21,-1.1 -0.58,-0.55 -1.15,-1.11 -1.7,-1.69 -0.55,-0.58 -0.93,-1 -1.37,-1.48 -0.44,-0.48 -0.89,-1 -1.31,-1.52 A 50.66,50.66 0 0 1 58.64,84.76 c 0.61,-0.27 1.23,-0.52 1.85,-0.75 0.62,-0.23 1.5,-0.54 2.26,-0.78 0.51,-0.16 1,-0.31 1.55,-0.45 0.55,-0.14 1.29,-0.33 2,-0.46 a 42.91,42.91 0 0 0 7.52,14 c 0.41,0.53 0.85,1 1.31,1.56 0.46,0.56 0.89,1 1.37,1.48 0.48,0.48 0.9,0.93 1.38,1.38 0.48,0.45 1,0.92 1.52,1.37 0.52,0.45 1,0.86 1.55,1.26 0.55,0.4 1.06,0.82 1.61,1.2 a 43.42,43.42 0 0 0 32.65,7.44 c 0.66,-0.1 1.31,-0.23 2,-0.38 -0.17,-0.65 -0.36,-1.29 -0.56,-1.93 v 0 A 43.33,43.33 0 0 0 93.86,83.72 q 0.27,-1 0.51,-2 c 0.25,-1 0.47,-2.1 0.66,-3.16 0,-0.29 0.1,-0.58 0.14,-0.88 0.11,-0.68 0.21,-1.36 0.28,-2 a 51.94,51.94 0 0 1 21,16.62 51.21,51.21 0 0 1 7.77,15.33 v 0 a 49.87,49.87 0 0 1 1.48,6 v 0.07 c 0,0.09 0,0.18 0,0.27 z"
           id="path136750" />
        <path
           d="m 93.84,69.25 c 0,1.17 0,2.35 -0.12,3.53 0,0.69 -0.11,1.39 -0.18,2.09 -0.07,0.7 -0.16,1.36 -0.27,2 -0.06,0.45 -0.13,0.9 -0.21,1.34 -0.16,0.9 -0.34,1.79 -0.55,2.67 -0.14,0.66 -0.31,1.32 -0.5,2 -0.19,0.68 -0.35,1.3 -0.56,1.93 A 50.82,50.82 0 0 1 82.14,102 c -0.53,-0.4 -1,-0.82 -1.55,-1.26 -0.55,-0.44 -1,-0.85 -1.45,-1.3 -0.45,-0.45 -1,-1 -1.46,-1.46 -0.46,-0.46 -0.93,-1 -1.37,-1.51 a 42.5,42.5 0 0 0 7.51,-14 c 0.21,-0.63 0.4,-1.28 0.56,-1.93 0.16,-0.65 0.33,-1.29 0.48,-2 0.15,-0.71 0.22,-1.09 0.32,-1.64 0.13,-0.76 0.25,-1.53 0.34,-2.31 0.09,-0.78 0.15,-1.33 0.2,-2 0.05,-0.67 0.08,-1.35 0.1,-2 0,-0.42 0,-0.85 0,-1.27 A 43.34,43.34 0 0 0 76.29,42.15 c -0.42,-0.53 -0.86,-1 -1.3,-1.56 -0.45,0.51 -0.89,1 -1.3,1.56 a 43.17,43.17 0 0 0 -7,12.44 43.64,43.64 0 0 0 -2.55,14.73 c 0,0.42 0,0.85 0,1.27 -0.67,0.13 -1.33,0.28 -2,0.45 -1,0.25 -2.07,0.53 -3.09,0.85 l -0.85,0.27 c -0.66,0.22 -1.32,0.45 -2,0.7 Q 56.08,71.09 56.08,69.32 A 51.19,51.19 0 0 1 68,36.39 50.24,50.24 0 0 1 72.13,32 l 0.13,-0.13 2.74,-2.62 2.75,2.61 0.1,0.1 A 49.66,49.66 0 0 1 82,36.4 51.35,51.35 0 0 1 93.84,69.25 Z"
           id="path136752" />
        <path
           d="M 73.4,110.32 A 51.57,51.57 0 0 1 47.71,120.47 51.44,51.44 0 0 1 33.37,120 l 0.35,-2 0.41,-2.34 c 0.09,-0.53 0.2,-1.06 0.31,-1.59 0.11,-0.53 0.3,-1.3 0.48,-2 a 43.46,43.46 0 0 0 32.66,-7.44 c 0.43,0.5 0.89,1 1.36,1.49 0.63,0.66 1.27,1.31 1.94,1.94 0.32,0.31 0.65,0.61 1,0.89 0.49,0.51 1,0.95 1.52,1.37 z"
           id="path136754" />
      </g>
    </symbol>
    <symbol
       id="bull_black">
      <g
         id="bull_black_transform"
         transform="matrix(37.037037,0,0,40.765248,-10431.434,-1755.1882)">
        <path
           style="stroke-width:0.264583"
           id="path136552"
           d="m 39.35796,47.43487 -1.002771,-2.95275 -1.000125,2.955396 c -1.087437,3.209395 -6.230937,5.630332 -11.964458,5.630332 -5.733521,0 -10.877021,-2.420937 -11.961813,-5.630332 l -1.002771,-2.955396 -1.005416,2.95275 a 6.0192708,6.0192708 0 0 0 -0.3175,1.928812 c 0,2.256896 2.33627,4.696354 7.14375,7.455958 l 0.529167,0.298979 v 0 c 0,2.016125 1.788583,4.296834 3.41577,5.953125 a 2.8522083,2.8522083 0 0 0 -0.185208,4.548188 3.4395833,3.4395833 0 0 0 6.768042,0 2.8495625,2.8495625 0 0 0 -0.187854,-4.548188 c 1.627187,-1.651 3.418416,-3.931708 3.418416,-5.947833 v 0 c 0.174625,-0.0979 0.351896,-0.195792 0.529167,-0.298979 4.810125,-2.759604 7.14375,-5.199063 7.14375,-7.455958 A 6.0192708,6.0192708 0 0 0 39.35796,47.43487 Z m -13.999104,7.836958 h 0.06085 c 0.724958,-0.01587 2.894542,0.111125 3.939646,0.878416 -1.341438,0.693209 -2.704042,1.322917 -3.96875,1.852084 -1.256771,-0.529167 -2.619375,-1.161521 -3.96875,-1.852084 0.978958,-0.724958 2.960687,-0.881062 3.791479,-0.881062 z m -8.564563,-1.852084 a 17.727083,17.727083 0 0 0 3.249084,1.143 c -0.0979,0.07673 -0.1905,0.15875 -0.280459,0.243417 a 3.6644792,3.6644792 0 0 0 -0.264583,0.304271 C 18.52996,54.562744 17.611856,53.980661 16.794293,53.411807 Z m 6.815667,11.347979 a 0.67733333,0.67733333 0 1 1 -0.529167,0.661459 0.61383333,0.61383333 0 0 1 0.529167,-0.669396 z m 3.561292,1.322917 a 0.67733333,0.67733333 0 1 1 0.529166,-0.661458 0.61383333,0.61383333 0 0 1 -0.529166,0.653521 z m -2.645834,1.939396 a 2.6617083,2.6617083 0 0 0 0.865188,-0.560917 2.619375,2.619375 0 0 0 0.859896,0.552979 1.2991042,1.2991042 0 0 1 -1.719792,0 z m 0.865188,-4.860396 c -2.206625,-1.852083 -3.481917,-3.532187 -4.077229,-4.722812 2.034646,1.010708 3.58775,1.648354 3.683,1.685395 l 0.399521,0.164042 0.39952,-0.164042 c 0.09525,-0.03704 1.666875,-0.682625 3.720042,-1.70127 -0.780521,1.563687 -2.624667,3.46075 -4.124854,4.738687 z m 5.900208,-8.077729 a 3.6644792,3.6644792 0 0 0 -0.264583,-0.304271 3.556,3.556 0 0 0 -0.291042,-0.224896 17.682104,17.682104 0 0 0 3.246438,-1.132416 c -0.820209,0.552979 -1.733021,1.132416 -2.690813,1.661583 z" />
      </g>
    </symbol>
    <symbol
       id="cross_black">
      <g
         id="cross_black_transform"
         transform="matrix(44.633637,0,0,38.067827,-10527.201,-1694.9291)">
        <path
           style="stroke-width:0.264583"
           id="path136352"
           d="m 33.69437,84.480587 -3.61686,0.291042 a 7.0405625,7.0405625 0 0 0 -3.37343,-3.376084 l 0.28575,-3.585104 H 20.4652 l 0.28575,3.585104 a 7.0405625,7.0405625 0 0 0 -3.37344,3.376084 l -3.61685,-0.291042 v 6.527271 l 3.61685,-0.291042 a 7.000875,7.000875 0 0 0 3.54807,3.455458 L 20.51283,105.69223 H 26.9422 L 26.52945,94.172274 a 7.000875,7.000875 0 0 0 3.54806,-3.455458 l 3.61686,0.291042 z m -5.94254,0.47625 -0.95515,0.07673 a 4.0745833,4.0745833 0 0 0 -0.35454,-0.354542 l 0.0767,-0.955145 a 4.9635833,4.9635833 0 0 1 1.23296,1.232958 z m -3.03742,1.799167 v 0.441854 H 24.2752 V 86.756004 Z M 24.2752,85.66592 v -0.34925 a 0.82020833,0.82020833 0 0 1 0.34396,0.34925 z m 0.43921,2.629959 v 0.439208 H 24.2752 v -0.441854 z m -0.0953,1.531937 a 0.82020833,0.82020833 0 0 1 -0.34396,0.336021 V 89.82517 Z m 1.53458,-1.531937 a 0.81491667,0.81491667 0 0 1 -0.3466,0.341312 v -0.343958 z m -0.3466,-1.095375 v -0.343959 a 0.841375,0.841375 0 0 1 0.34925,0.343959 z m -1.1086,-7.273397 -0.30163,3.775605 a 3.8787917,3.8787917 0 0 0 -1.33879,0 l -0.30163,-3.775605 z m -3.3999,7.270751 a 0.841375,0.841375 0 0 1 0.34925,-0.343959 v 0.343959 z m 0.34925,1.095375 v 0.341312 a 0.81491667,0.81491667 0 0 1 -0.3466,-0.341312 z m 1.18798,1.531937 h 0.34396 v 0.338667 A 0.83608333,0.83608333 0 0 1 22.83582,89.82517 Z m -0.0953,-1.092729 v -0.439208 h 0.43921 v 0.439208 z m 0,-1.534583 v -0.441854 h 0.43921 v 0.441854 z m 0.0953,-1.534584 a 0.83608333,0.83608333 0 0 1 0.34396,-0.346604 v 0.34925 z m -1.89971,-1.939395 0.0767,0.955145 a 4.0745833,4.0745833 0 0 0 -0.35454,0.354542 l -0.95515,-0.07673 a 4.9635833,4.9635833 0 0 1 1.23296,-1.232958 z m -5.05883,3.050645 3.80735,0.304271 a 3.8338125,3.8338125 0 0 0 0,1.322917 l -3.80735,0.312208 z m 3.82587,3.757084 0.95515,-0.07673 a 3.77825,3.77825 0 0 0 0.38629,0.383645 l -0.0344,0.978959 a 4.873625,4.873625 0 0 1 -1.30704,-1.285874 z m 3.00567,13.043962 0.41804,-11.776608 a 3.81,3.81 0 0 0 1.20121,0 l 0.41804,11.776608 z m 3.73592,-11.758087 -0.0344,-0.978959 a 3.77825,3.77825 0 0 0 0.38629,-0.383645 l 0.95514,0.07673 a 4.873625,4.873625 0 0 1 -1.30704,1.285875 z M 31.57765,88.71392 27.7703,88.409649 a 3.8338125,3.8338125 0 0 0 0,-1.322916 l 3.80735,-0.304271 z" />
      </g>
    </symbol>
    <symbol
       id="double_spiral_black">
      <g
         id="double_spiral_black_transform"
         transform="matrix(12.10875,0,0,12.10875,-9224.9326,-1773.0047)">
        <path
           id="path136150"
           d="M 96,95.42 A 22.65,22.65 0 0 1 90.86,94.83 C 90.22,94.68 89.66,94.53 89.11,94.36 88.56,94.19 88,94 87.45,93.79 c -0.55,-0.21 -1,-0.43 -1.56,-0.67 -0.56,-0.24 -1,-0.49 -1.5,-0.77 -0.5,-0.28 -1,-0.56 -1.45,-0.86 -0.45,-0.3 -0.92,-0.62 -1.37,-0.95 -0.45,-0.33 -0.89,-0.67 -1.32,-1 -0.43,-0.33 -0.84,-0.72 -1.24,-1.1 -0.4,-0.38 -0.79,-0.77 -1.17,-1.17 -0.38,-0.4 -0.75,-0.81 -1.11,-1.23 -0.36,-0.42 -0.7,-0.86 -1,-1.3 -0.3,-0.44 -0.65,-0.89 -1,-1.35 -0.35,-0.46 -0.61,-0.93 -0.89,-1.4 -0.28,-0.47 -0.55,-1 -0.81,-1.45 -0.26,-0.45 -0.5,-1 -0.73,-1.49 l -0.21,-0.46 c -0.15,-0.33 -0.28,-0.67 -0.42,-1 -0.14,-0.33 -0.17,-0.46 -0.24,-0.67 l -0.17,-0.45 c -0.11,-0.3 -0.24,-0.63 -0.34,-0.94 l 7.59,-2.53 0.25,0.67 0.2,0.56 c 0.05,0.14 0.1,0.28 0.16,0.42 0.06,0.14 0.2,0.5 0.3,0.73 l 0.16,0.35 q 0.26,0.55 0.54,1.11 c 0.19,0.36 0.4,0.72 0.61,1.07 0.21,0.35 0.42,0.7 0.65,1 0.23,0.3 0.46,0.67 0.71,1 0.25,0.33 0.49,0.64 0.76,0.95 0.27,0.31 0.52,0.6 0.8,0.89 0.28,0.29 0.55,0.57 0.84,0.85 0.29,0.28 0.59,0.53 0.89,0.78 0.3,0.25 0.61,0.5 0.93,0.73 0.32,0.23 0.63,0.45 1,0.66 0.37,0.21 0.66,0.41 1,0.6 0.34,0.19 0.68,0.36 1,0.52 0.32,0.16 0.71,0.32 1.07,0.46 0.36,0.14 0.72,0.27 1.09,0.38 0.37,0.11 0.74,0.22 1.12,0.31 a 14.86,14.86 0 0 0 17.85,-11.14 11.09,11.09 0 0 0 -8.31,-13.31 8.08,8.08 0 0 0 -9.68,6 5.57,5.57 0 0 0 0,2.47 5.68,5.68 0 0 0 4.26,4.32 3.72,3.72 0 0 0 4.47,-2.79 1.8,1.8 0 0 0 0,-0.51 l 8,-0.31 a 10,10 0 0 1 -0.25,2.61 11.74,11.74 0 0 1 -14.07,8.79 13.69,13.69 0 0 1 -10.27,-10.4 13.52,13.52 0 0 1 0,-6 16.07,16.07 0 0 1 19.28,-12 19.08,19.08 0 0 1 14.31,22.9 A 22.9,22.9 0 0 1 96,95.42 Z" />
        <path
           id="path136152"
           d="M 49.69,95.62 A 16,16 0 0 1 46.07,95.21 19.09,19.09 0 0 1 31.76,72.31 22.86,22.86 0 0 1 59.18,55.17 c 0.71,0.17 1.29,0.33 1.83,0.5 a 26.31,26.31 0 0 1 11.18,7.13 c 0.45,0.47 0.88,1 1.29,1.45 0.41,0.45 0.81,1 1.19,1.55 0.38,0.55 0.74,1.06 1.09,1.61 0.35,0.55 0.67,1.1 1,1.67 0.33,0.57 0.6,1.15 0.87,1.73 0.27,0.58 0.62,1.34 0.92,2.18 L 71,75.67 a 15.63,15.63 0 0 0 -0.63,-1.48 c -0.2,-0.43 -0.42,-0.86 -0.65,-1.28 -0.23,-0.42 -0.47,-0.84 -0.72,-1.24 -0.25,-0.4 -0.53,-0.8 -0.81,-1.19 -0.28,-0.39 -0.57,-0.76 -0.87,-1.13 -0.3,-0.37 -0.62,-0.72 -0.94,-1.07 a 18.32,18.32 0 0 0 -7.78,-5 c -0.42,-0.14 -0.82,-0.24 -1.23,-0.34 a 14.87,14.87 0 0 0 -17.8,11.15 11.09,11.09 0 0 0 8.31,13.3 8.08,8.08 0 0 0 9.68,-6 5.52,5.52 0 0 0 0,-2.46 5.67,5.67 0 0 0 -4.26,-4.32 3.72,3.72 0 0 0 -4.47,2.79 1.73,1.73 0 0 0 -0.05,0.5 l -8,0.32 a 10.13,10.13 0 0 1 0.22,-2.65 11.74,11.74 0 0 1 14.07,-8.79 13.7,13.7 0 0 1 10.31,10.41 13.47,13.47 0 0 1 0,6 16.11,16.11 0 0 1 -15.69,12.43 z" />
      </g>
    </symbol>
    <symbol
       id="druid_sigil_black">
      <g
         id="druid_sigil_black_transform"
         transform="matrix(12.027831,0,0,12.027831,-9188.773,-614.78417)">
        <path
           id="path136040"
           d="m 119,75 a 44,44 0 0 1 -23,38.66 v -9.44 a 36,36 0 0 0 0,-58.44 c -0.65,-0.47 -1.31,-0.91 -2,-1.34 -0.69,-0.43 -1.32,-0.8 -2,-1.16 a 35.41,35.41 0 0 0 -4,-1.85 c -0.66,-0.25 -1.32,-0.49 -2,-0.71 -0.68,-0.22 -1.32,-0.4 -2,-0.57 a 35.79,35.79 0 0 0 -18,0 v -8.22 a 44,44 0 0 1 18,0 c 0.67,0.14 1.34,0.29 2,0.47 0.66,0.18 1.34,0.36 2,0.56 a 42.38,42.38 0 0 1 4,1.46 c 0.68,0.28 1.34,0.58 2,0.9 0.66,0.32 1.34,0.66 2,1 A 44,44 0 0 1 119,75 Z" />
        <path
           id="path136042"
           d="m 84,109.85 v 8.22 a 44,44 0 0 1 -18,0 c -0.67,-0.14 -1.34,-0.29 -2,-0.47 -0.66,-0.18 -1.34,-0.36 -2,-0.56 a 42.38,42.38 0 0 1 -4,-1.46 c -0.68,-0.28 -1.34,-0.58 -2,-0.9 -0.66,-0.32 -1.34,-0.66 -2,-1 a 44,44 0 0 1 0,-77.32 v 9.44 a 36,36 0 0 0 0,58.44 c 0.65,0.47 1.31,0.91 2,1.34 0.69,0.43 1.32,0.8 2,1.16 a 35.41,35.41 0 0 0 4,1.85 c 0.66,0.25 1.32,0.49 2,0.71 0.68,0.22 1.32,0.4 2,0.57 a 35.79,35.79 0 0 0 18,0 z" />
        <path
           id="path136044"
           d="M 64,119.67 V 125 h -8 v -8.11 c 0.66,0.3 1.33,0.58 2,0.85 1.31,0.52 2.64,1 4,1.39 0.66,0.19 1.32,0.37 2,0.54 z" />
        <path
           id="path136046"
           d="m 64,25 v 82.17 c -0.68,-0.22 -1.34,-0.48 -2,-0.75 a 33.79,33.79 0 0 1 -4,-2 c -0.68,-0.4 -1.35,-0.81 -2,-1.25 V 25 Z" />
        <path
           id="path136048"
           d="M 94,46.81 V 125 H 86 V 42.83 c 0.68,0.22 1.34,0.48 2,0.75 a 33.79,33.79 0 0 1 4,2 c 0.68,0.42 1.35,0.79 2,1.23 z" />
        <path
           id="path136050"
           d="m 94,25 v 8.11 c -0.66,-0.3 -1.33,-0.58 -2,-0.85 -1.31,-0.52 -2.64,-1 -4,-1.39 -0.66,-0.19 -1.32,-0.37 -2,-0.54 V 25 Z" />
      </g>
    </symbol>
    <symbol
       id="sailors_knot_black">
      <g
         id="sailors_knot_black_transform"
         transform="matrix(9.9991459,0,0,9.9991459,-9003.5228,1019.2465)">
        <path
           d="m 114.4,61.57 a 13.47,13.47 0 0 0 -9.4,3.81 l -4,4 L 81.67,50 86.06,45.6 A 14.35,14.35 0 1 0 65.6,45.43 L 70.17,50 50.91,69.25 46.34,64.68 a 14.22,14.22 0 0 0 -9.92,-4 14.36,14.36 0 1 0 10.15,24.53 l 4.3,-4.3 19.2,19.21 -4.53,4.53 a 14.36,14.36 0 1 0 20.52,-0.23 l -4.29,-4.3 19.23,-19.26 3.81,3.8 a 13.53,13.53 0 1 0 9.56,-23.09 z m -73.48,18 a 6.36,6.36 0 1 1 -4.5,-10.85 6.25,6.25 0 0 1 4.32,1.69 l 4.67,4.67 z m 35,-50.47 a 6.35,6.35 0 0 1 4.48,10.83 l -4.48,4.49 -4.61,-4.61 a 6.29,6.29 0 0 1 -1.75,-4.38 6.36,6.36 0 0 1 6.35,-6.35 z m 0,91.84 a 6.36,6.36 0 0 1 -6.35,-6.35 6.25,6.25 0 0 1 1.69,-4.32 l 4.67,-4.67 4.49,4.5 a 6.35,6.35 0 0 1 -4.5,10.84 z m 0.21,-26.46 -0.2,-0.19 -0.19,0.19 -19.2,-19.2 0.2,-0.19 -0.16,-0.16 11.76,-11.79 7.49,-7.5 0.09,0.09 0.09,-0.08 7,7 v 0 L 95.38,75 l -0.11,0.1 0.1,0.1 z M 114.4,80.63 A 5.46,5.46 0 0 1 110.5,79 l -3.91,-3.89 4,-4 a 5.47,5.47 0 0 1 3.8,-1.52 5.53,5.53 0 0 1 0,11.06 z"
           id="path135938" />
        <path
           d="m 102.55,63.25 a 11.75,11.75 0 0 0 -8.21,3.31 l -0.67,0.66 -0.2,-0.2 -6,6 -9.47,-9.5 6.46,-6.45 a 11.87,11.87 0 1 0 -17.13,0 l 6.43,6.44 -9.35,9.34 -6.34,-6.34 a 11.85,11.85 0 1 0 0,17.14 l 6.33,-6.33 9.13,9.13 -6.25,6.25 A 11.75,11.75 0 0 0 64,100.88 11.86,11.86 0 1 0 84.42,92.67 l -6.23,-6.22 9.26,-9.25 6.12,6.13 0.2,-0.2 0.53,0.54 a 11.86,11.86 0 1 0 8.19,-20.44 z M 67.06,48.88 A 8.86,8.86 0 1 1 82.35,55 L 75.92,61.44 69.51,55 A 8.78,8.78 0 0 1 67.06,48.88 Z M 49.92,84 a 8.86,8.86 0 0 1 0,-17.71 8.76,8.76 0 0 1 6.08,2.39 l 6.33,6.32 -6.08,6.09 0.11,0.11 -0.32,0.33 A 8.87,8.87 0 0 1 49.92,84 Z m 34.85,16.9 a 8.86,8.86 0 1 1 -17.71,0 8.74,8.74 0 0 1 2.43,-6.08 l 6.43,-6.44 6.41,6.41 a 8.85,8.85 0 0 1 2.44,6.11 z M 76.13,84.35 75.92,84.14 75.71,84.35 66.58,75.22 66.69,75.11 66.57,75 75.92,65.65 85.38,75.1 Z M 102.55,84 A 8.82,8.82 0 0 1 96.46,81.58 L 90,75.11 96.42,68.7 a 8.76,8.76 0 0 1 6.11,-2.45 8.86,8.86 0 0 1 0,17.71 z"
           id="path135940" />
      </g>
    </symbol>
    <symbol
       id="tree_of_life_black">
      <g
         id="tree_of_life_black_transform"
         transform="matrix(39.596108,0,0,39.596108,-7935.5679,-9995.5298)">
        <path
           style="stroke-width:0.264583"
           id="path135838"
           d="m 36.463174,232.69811 a 30.95625,30.95625 0 0 0 -3.468687,-3.08504 30.95625,30.95625 0 0 0 0.264583,-4.6355 l -0.02646,-1.00277 -1.002771,-0.0265 a 31.197021,31.197021 0 0 0 -4.638146,0.26459 30.466771,30.466771 0 0 0 -3.077104,-3.46075 l -0.727604,-0.69057 -0.727604,0.69057 a 31.046208,31.046208 0 0 0 -3.082396,3.46339 31.183792,31.183792 0 0 0 -4.638146,-0.26458 l -1.002771,0.0265 -0.02646,1.00277 a 30.985354,30.985354 0 0 0 0.264583,4.63814 30.620229,30.620229 0 0 0 -3.46075,3.07975 l -0.690563,0.72761 0.690563,0.7276 a 31.768521,31.768521 0 0 0 2.682875,2.47386 c 2.159,1.76212 3.868209,2.61937 5.249334,2.61937 a 5.8208333,5.8208333 0 0 0 3.614208,-1.27529 c 0.01323,0.09 0.03175,0.18521 0.04763,0.26458 a 10.276417,10.276417 0 0 1 -1.719792,3.86821 l -0.03175,0.045 a 10.443104,10.443104 0 0 1 -4.654021,3.62215 l -1.944687,0.75935 1.756833,1.1139 a 7.0088125,7.0088125 0 0 0 7.672917,-0.11906 7.0088125,7.0088125 0 0 0 7.672917,0.11906 l 1.76477,-1.11919 -1.952625,-0.75406 a 10.414,10.414 0 0 1 -4.65402,-3.60892 l -0.0344,-0.045 a 10.302875,10.302875 0 0 1 -1.717145,-3.86556 c 0.01588,-0.0926 0.0344,-0.18786 0.04763,-0.28046 a 5.8393542,5.8393542 0 0 0 3.635375,1.27529 c 1.359958,0 3.069167,-0.85725 5.228167,-2.61937 a 31.768521,31.768521 0 0 0 2.682875,-2.47386 l 0.690562,-0.7276 z m -18.3515,-2.75695 a 5.8869792,5.8869792 0 0 0 2.809875,3.78618 c -0.09525,0 -0.193145,0.0238 -0.288395,0.0291 a 3.7041667,3.7041667 0 0 1 -2.833688,-1.0795 c -0.211667,-0.21166 -0.584729,-0.75405 -0.894292,-2.10078 a 7.8290208,7.8290208 0 0 1 1.2065,-0.635 z m 5.027084,-2.43152 v 0 a 4.6540208,4.6540208 0 0 0 -0.576792,1.32291 5.7996667,5.7996667 0 0 0 -2.262187,-1.05833 7.8237292,7.8237292 0 0 1 0.635,-1.20386 c 1.370541,0.30163 1.984375,0.72761 2.196041,0.94457 z m 3.511021,-0.9578 a 7.7020208,7.7020208 0 0 1 0.629708,1.19857 5.7732083,5.7732083 0 0 0 -2.259542,1.05833 4.6857708,4.6857708 0 0 0 -0.582083,-1.32292 v 0 a 6.7495208,6.7495208 0 0 1 2.203979,-0.93398 z m -3.741209,5.70707 a 3.8735,3.8735 0 0 1 -0.4445,-0.13759 3.7332708,3.7332708 0 0 1 -2.116666,-2.0955 5.55625,5.55625 0 0 1 1.198562,0.68792 10.744729,10.744729 0 0 1 1.362604,1.54517 z m 2.201334,-0.13759 a 3.6221458,3.6221458 0 0 1 -0.465667,0.14023 6.7336458,6.7336458 0 0 1 1.375833,-1.54781 5.2440417,5.2440417 0 0 1 1.219729,-0.74083 3.7359167,3.7359167 0 0 1 -2.129895,2.14841 z m 4.344458,-2.18016 a 7.7761042,7.7761042 0 0 1 1.211792,0.63235 c -0.309563,1.34408 -0.682625,1.89177 -0.896938,2.11667 a 3.7041667,3.7041667 0 0 1 -2.831042,1.0795 c -0.09525,0 -0.193145,-0.0159 -0.28575,-0.0291 a 5.8816875,5.8816875 0 0 0 2.809875,-3.79942 z m 1.553104,-1.60602 a 6.9479583,6.9479583 0 0 0 -1.531937,-0.6059 6.8368333,6.8368333 0 0 0 -0.600605,-1.53723 c 0.859896,-0.0847 1.669521,-0.11906 2.270125,-0.12965 -0.01058,0.6059 -0.04498,1.41288 -0.129645,2.27278 z m -7.220479,-5.31813 c 0.418042,0.43392 0.963083,1.02923 1.513417,1.69598 a 6.9135625,6.9135625 0 0 0 -1.513417,0.65617 6.9453125,6.9453125 0 0 0 -1.510771,-0.65352 c 0.547688,-0.66675 1.095375,-1.26207 1.510771,-1.69863 z m -5.087938,3.175 a 6.8368333,6.8368333 0 0 0 -0.608541,1.53194 6.8368333,6.8368333 0 0 0 -1.531938,0.60854 c -0.08467,-0.8599 -0.116416,-1.66952 -0.129646,-2.27013 0.60325,0.0159 1.41023,0.0503 2.270125,0.12965 z m 0.325438,10.93788 c -1.307042,0 -3.857625,-1.9738 -5.648855,-3.70417 0.436563,-0.4154 1.031876,-0.96573 1.701272,-1.51606 a 5.4636458,5.4636458 0 0 0 1.22502,2.26218 5.8208333,5.8208333 0 0 0 4.114271,1.70392 c 0.113771,0 0.224896,0 0.338667,0 a 5.8208333,5.8208333 0 0 0 1.211792,-0.20373 l -0.09525,0.13229 a 3.7041667,3.7041667 0 0 1 -2.846917,1.32557 z m 9.525,0 a 3.7041667,3.7041667 0 0 1 -2.836333,-1.32292 l -0.07408,-0.13758 a 5.8208333,5.8208333 0 0 0 1.193271,0.19843 c 0.111125,0 0.224896,0 0.338667,0 a 5.8208333,5.8208333 0 0 0 4.111625,-1.70391 5.4398333,5.4398333 0 0 0 1.227666,-2.26219 c 0.669396,0.55033 1.267355,1.10067 1.701271,1.51606 -1.801812,1.73831 -4.355041,3.71211 -5.662083,3.71211 z" />
      </g>
    </symbol>
    <symbol
       id="triquetra_trinity_knot_black">
      <g
         id="triquetra_trinity_knot_black_transform"
         transform="matrix(11.035801,0,0,11.035801,-7742.9243,-160.70582)">
        <path
           id="path135722"
           d="m 58,48.81 c -0.27,0.88 -0.5,1.76 -0.72,2.67 a 47.11,47.11 0 0 0 -1,5.37 c -0.12,0.9 -0.22,1.8 -0.29,2.72 a 32.05,32.05 0 0 0 -8.7,10.82 34.43,34.43 0 0 0 -1.56,3.61 29,29 0 0 0 -1,3.42 32.4,32.4 0 0 0 -0.8,6.41 c 0,0.24 0,0.48 0,0.71 0,0.77 0,1.54 0.08,2.29 0.08,1 0.18,1.92 0.34,2.86 a 32,32 0 0 0 5,12.62 c 0.43,0.63 0.88,1.25 1.35,1.84 -0.76,0.11 -1.54,0.19 -2.31,0.25 -1.08,0.08 -2.17,0.14 -3.26,0.14 -0.5,0 -1,0 -1.48,0 -0.81,0 -1.62,-0.06 -2.42,-0.15 -0.4,-0.7 -0.78,-1.41 -1.14,-2.15 -0.36,-0.74 -0.71,-1.48 -1,-2.24 -0.4,-0.94 -0.75,-1.89 -1.08,-2.86 -0.33,-0.97 -0.6,-2 -0.85,-3 a 38.78,38.78 0 0 1 -1,-6.41 c -0.07,-1 -0.13,-2.09 -0.13,-3.15 0,-0.09 0,-0.17 0,-0.26 A 34.92,34.92 0 0 1 36.21,80.76 40.08,40.08 0 0 1 58,48.81 Z" />
        <path
           id="path135724"
           d="m 115.94,84.26 c -0.68,-1 -1.39,-1.9 -2.13,-2.8 a 49.22,49.22 0 0 0 -4.87,-5.13 c -0.9,-0.82 -1.83,-1.6 -2.8,-2.35 A 31.78,31.78 0 0 0 95.94,59.57 c -0.69,-0.56 -1.42,-1.09 -2.15,-1.59 -0.73,-0.5 -1.44,-0.93 -2.19,-1.35 a 30.54,30.54 0 0 0 -4.45,-2.07 c -0.72,-0.27 -1.46,-0.52 -2.21,-0.74 -0.75,-0.22 -1.46,-0.4 -2.21,-0.57 a 31.94,31.94 0 0 0 -13.58,0 c 0.21,-0.73 0.42,-1.45 0.67,-2.17 a 37.37,37.37 0 0 1 1.74,-4.29 c 0.33,-0.73 0.7,-1.43 1.08,-2.12 1.1,-0.09 2.18,-0.15 3.3,-0.15 1.12,0 2.2,0.06 3.3,0.15 0.8,0.06 1.59,0.15 2.4,0.26 0.81,0.11 1.62,0.26 2.43,0.42 A 38.93,38.93 0 0 1 89,46.73 c 0.83,0.28 1.65,0.58 2.46,0.92 0.81,0.34 1.68,0.75 2.49,1.16 a 40.12,40.12 0 0 1 21.81,31.89 c 0.11,1.17 0.17,2.36 0.18,3.56 z" />
        <path
           id="path135726"
           d="m 112.85,99.94 c -0.33,0.76 -0.67,1.51 -1,2.24 -0.33,0.73 -0.75,1.45 -1.15,2.15 -0.4,0.7 -0.85,1.42 -1.29,2.1 a 37.18,37.18 0 0 1 -3.07,4.08 c -0.57,0.67 -1.17,1.32 -1.79,1.95 -0.62,0.63 -1.27,1.27 -2,1.87 a 39.89,39.89 0 0 1 -53.26,0 c 0.92,-0.07 1.83,-0.16 2.74,-0.29 a 50.88,50.88 0 0 0 5.37,-1 q 1.34,-0.33 2.64,-0.72 a 31.92,31.92 0 0 0 31.76,0 c 0.79,-0.46 1.55,-0.93 2.28,-1.44 0.73,-0.51 1.4,-1 2.07,-1.55 a 32.11,32.11 0 0 0 3.53,-3.37 c 0.53,-0.58 1,-1.18 1.5,-1.8 0.5,-0.62 0.92,-1.21 1.34,-1.84 a 31.74,31.74 0 0 0 5,-12.62 c 0.56,0.77 1.09,1.56 1.59,2.35 a 38.24,38.24 0 0 1 2.67,5.12 c 0.39,0.89 0.74,1.83 1.07,2.77 z" />
        <path
           id="path135728"
           d="m 122.93,111.88 c -1.31,0.44 -2.64,0.83 -4,1.17 -0.67,0.16 -1.33,0.32 -2,0.45 -0.67,0.13 -1.35,0.26 -2,0.36 a 50.58,50.58 0 0 1 -8.13,0.66 c -0.48,0 -1,0 -1.44,0 0.66,-0.63 1.29,-1.29 1.88,-2 0.59,-0.71 1.17,-1.34 1.72,-2 a 41.77,41.77 0 0 0 3,-4.28 c 0.84,-0.09 1.66,-0.22 2.47,-0.35 0.65,-0.12 1.31,-0.25 2,-0.41 -0.12,-0.65 -0.25,-1.31 -0.39,-2 -0.14,-0.69 -0.31,-1.3 -0.49,-1.94 -0.18,-0.64 -0.3,-1 -0.46,-1.55 -0.33,-1 -0.68,-1.95 -1.08,-2.91 -0.4,-0.96 -0.79,-1.87 -1.25,-2.78 a 41.14,41.14 0 0 0 -3,-5.13 c -0.56,-0.81 -1.16,-1.59 -1.77,-2.36 -0.61,-0.77 -1.25,-1.49 -1.91,-2.2 A 41.36,41.36 0 0 0 94.56,76 c 0.17,-0.66 0.32,-1.34 0.45,-2 0.3,-1.35 0.5,-2.71 0.69,-4.11 a 47.65,47.65 0 0 1 8.75,5.3 c 0.92,0.7 1.81,1.44 2.69,2.21 0.88,0.77 1.67,1.55 2.46,2.37 a 46,46 0 0 1 4.33,5.12 c 0.65,0.9 1.28,1.84 1.88,2.78 0.6,0.94 1.19,1.93 1.69,2.93 a 47.24,47.24 0 0 1 3.67,9.16 c 0.18,0.64 0.34,1.29 0.5,1.95 0.16,0.66 0.29,1.31 0.43,2 0.25,1.33 0.46,2.68 0.6,4 0.06,0.68 0.12,1.37 0.16,2.06 0.04,0.69 0.06,1.41 0.07,2.11 z" />
        <path
           id="path135730"
           d="m 84.08,64.21 c 0,0.68 0,1.35 -0.07,2 -0.11,1.34 -0.26,2.67 -0.49,4 -0.12,0.66 -0.25,1.32 -0.39,2 a 40.09,40.09 0 0 0 -14.38,0 c -0.67,0.12 -1.31,0.25 -2,0.39 -0.69,0.14 -1.29,0.32 -1.93,0.5 -1.3,0.36 -2.57,0.79 -3.81,1.27 -0.65,0.25 -1.26,0.52 -1.87,0.79 -0.61,0.27 -1.24,0.58 -1.86,0.89 A 41.17,41.17 0 0 0 46,84.61 c 0,0 0,-0.06 0,-0.09 0,-1 0.05,-2 0.14,-2.9 a 29.64,29.64 0 0 1 1.36,-6.43 26.22,26.22 0 0 1 1.37,-3.44 49.18,49.18 0 0 1 7.15,-4 c 0.65,-0.28 1.3,-0.56 1.94,-0.81 l 2,-0.74 c 1.29,-0.45 2.6,-0.86 4,-1.2 0.64,-0.17 1.32,-0.31 2,-0.46 0.68,-0.15 1.33,-0.26 2,-0.37 a 48.42,48.42 0 0 1 16.29,0 z" />
        <path
           id="path135732"
           d="m 98.94,103.76 c -0.5,0.59 -1,1.16 -1.56,1.72 a 32.57,32.57 0 0 1 -3.65,3.19 c -0.69,0.5 -1.41,1 -2.13,1.43 a 48.3,48.3 0 0 1 -14,-7.27 c -0.55,-0.41 -1.08,-0.83 -1.62,-1.26 -0.54,-0.43 -1,-0.87 -1.55,-1.32 -1,-0.9 -2,-1.83 -2.91,-2.8 -0.47,-0.47 -0.92,-1 -1.37,-1.47 -0.45,-0.47 -0.87,-1 -1.3,-1.52 A 49,49 0 0 1 59.7,77.08 c 0.61,-0.28 1.23,-0.54 1.85,-0.79 A 36.59,36.59 0 0 1 65.33,75 c 0.65,-0.19 1.3,-0.35 1.94,-0.5 a 41,41 0 0 0 7.37,14.44 c 0.43,0.54 0.86,1 1.3,1.56 0.44,0.56 0.89,1 1.37,1.48 0.92,1 1.89,1.87 2.9,2.75 L 81.76,96 c 0.54,0.41 1.07,0.81 1.63,1.19 a 40.84,40.84 0 0 0 15.55,6.57 z" />
        <path
           id="path135734"
           d="m 74.32,102.83 a 48.49,48.49 0 0 1 -14,7.27 c -0.84,0.27 -1.66,0.52 -2.52,0.75 -0.86,0.23 -1.67,0.44 -2.53,0.61 a 47.63,47.63 0 0 1 -5.22,0.81 c -0.88,0.09 -1.77,0.15 -2.66,0.19 -0.89,0.04 -1.5,0.06 -2.25,0.06 h -0.46 a 50.21,50.21 0 0 1 -7.7,-0.68 c -0.66,-0.1 -1.32,-0.23 -2,-0.37 -0.68,-0.14 -1.32,-0.29 -2,-0.46 -1.34,-0.33 -2.66,-0.75 -4,-1.2 -0.65,-0.23 -1.31,-0.48 -1.95,-0.73 0.06,-0.7 0.12,-1.39 0.19,-2.08 0.16,-1.38 0.37,-2.74 0.63,-4.07 0.13,-0.68 0.29,-1.34 0.44,-2 0.15,-0.66 0.35,-1.31 0.54,-2 A 49.07,49.07 0 0 1 34,87.15 c 0.09,1.16 0.19,2.31 0.37,3.45 a 41.24,41.24 0 0 0 1.46,6.4 c -0.5,1.31 -0.94,2.66 -1.32,4 -0.19,0.65 -0.34,1.29 -0.5,1.94 -0.16,0.65 -0.27,1.31 -0.39,2 0.64,0.18 1.28,0.34 2,0.49 0.72,0.15 1.3,0.29 2,0.41 0.81,0.13 1.63,0.26 2.47,0.35 0.84,0.09 1.66,0.18 2.51,0.23 0.85,0.05 1.64,0.08 2.49,0.09 h 0.12 a 43.31,43.31 0 0 0 4.71,-0.26 c 0.8,-0.09 1.57,-0.2 2.36,-0.33 0.79,-0.13 1.56,-0.28 2.32,-0.45 a 42.64,42.64 0 0 0 15.36,-6.83 c 0.93,1 1.9,1.93 2.9,2.84 0.41,0.46 0.94,0.92 1.46,1.35 z" />
        <path
           id="path135736"
           d="m 94.11,63.52 c 0,0.46 0,0.9 0,1.34 0,0.71 -0.06,1.41 -0.11,2.12 -0.05,0.71 -0.09,1.38 -0.17,2.07 -0.16,1.38 -0.36,2.74 -0.64,4.08 -0.14,0.67 -0.28,1.33 -0.45,2 -0.17,0.67 -0.33,1.31 -0.51,2 A 49.17,49.17 0 0 1 83.11,94.51 Q 82.32,93.9 81.55,93.25 a 37.85,37.85 0 0 1 -2.91,-2.76 c -0.46,-0.48 -0.92,-1 -1.36,-1.5 A 40.83,40.83 0 0 0 84.6,74.5 c 0.17,-0.64 0.35,-1.29 0.48,-1.94 0.13,-0.65 0.29,-1.3 0.41,-2 0.21,-1.31 0.39,-2.64 0.49,-4 0,-0.67 0.09,-1.35 0.09,-2 0,-0.35 0,-0.7 0,-1.06 0,-0.36 0,-0.66 0,-1 a 41.85,41.85 0 0 0 -0.66,-6.48 c 0.73,0.25 1.46,0.51 2.16,0.82 a 28.88,28.88 0 0 1 4.31,2.25 c 0.73,0.47 1.43,0.95 2.12,1.47 0.07,1 0.11,1.98 0.11,2.96 z" />
        <path
           id="path135738"
           d="m 90.51,45.13 c -0.83,-0.31 -1.69,-0.59 -2.53,-0.84 a 41.22,41.22 0 0 0 -5,-1.17 c -0.83,-0.14 -1.66,-0.26 -2.5,-0.36 A 43.22,43.22 0 0 0 77.27,38.1 c -0.42,-0.53 -0.85,-1.05 -1.3,-1.56 -0.44,0.51 -0.87,1 -1.3,1.56 a 38.07,38.07 0 0 0 -3.2,4.66 c -0.43,0.72 -0.81,1.44 -1.19,2.17 -0.38,0.73 -0.73,1.46 -1,2.2 a 38,38 0 0 0 -1.64,4.44 c -0.24,0.74 -0.43,1.49 -0.61,2.25 -0.18,0.76 -0.34,1.49 -0.49,2.24 a 40.66,40.66 0 0 0 -0.66,6.48 c -0.68,0.13 -1.35,0.29 -2,0.45 -1.36,0.34 -2.69,0.74 -4,1.18 -0.66,0.21 -1.34,0.44 -2,0.69 0,-0.44 0,-0.88 0,-1.34 0,-1 0,-2 0.1,-2.92 0.1,-0.92 0.02,-1.75 0.12,-2.6 0.1,-0.85 0.22,-1.75 0.36,-2.61 a 46,46 0 0 1 1.17,-5.16 c 0.24,-0.86 0.51,-1.72 0.8,-2.56 0.29,-0.84 0.59,-1.69 0.94,-2.52 A 49.42,49.42 0 0 1 68.81,32.6 c 0.43,-0.52 0.86,-1 1.3,-1.52 0.44,-0.52 0.9,-1 1.37,-1.46 0.92,-1 1.9,-1.91 2.91,-2.81 0.5,-0.44 1,-0.89 1.55,-1.31 0.52,0.42 1,0.87 1.56,1.31 1,0.9 2,1.83 2.9,2.81 0.47,0.47 0.92,1 1.36,1.46 0.44,0.46 0.88,1 1.31,1.52 a 49.42,49.42 0 0 1 7.44,12.53 z" />
      </g>
    </symbol>
    <symbol
       id="triskeles_black">
      <g
         id="triskeles_black_transform"
         transform="matrix(51.781806,0,0,51.781806,-8536.6944,-1766.2314)">
        <path
           style="stroke-width:0.264583"
           id="path136452"
           d="m 38.102503,68.82259 a 3.6856458,3.6856458 0 0 0 -1.558396,0.211666 3.6168542,3.6168542 0 0 0 -2.3495,3.071813 3.1035625,3.1035625 0 0 0 2.831042,3.368146 2.7490208,2.7490208 0 0 0 0.679979,-0.0344 l -0.396875,-2.082267 a 0.56091667,0.56091667 0 0 1 -0.132292,0 0.98689583,0.98689583 0 0 1 -0.661458,-0.343958 0.97366667,0.97366667 0 0 1 -0.224896,-0.719667 1.4948958,1.4948958 0 0 1 0.973667,-1.272646 1.5319375,1.5319375 0 0 1 0.645583,-0.08996 2.1457708,2.1457708 0 0 1 1.942042,2.31775 2.9395208,2.9395208 0 0 1 -3.175,2.664354 3.9290625,3.9290625 0 0 1 -3.476625,-2.955396 c -0.01852,-0.07408 -0.0344,-0.153458 -0.05027,-0.230187 v -0.08996 a 3.7888333,3.7888333 0 0 1 -0.07408,-0.812271 l 0.01588,-0.03969 v -0.195792 c 0,-0.08467 0.01852,-0.166687 0.03439,-0.264583 0.01587,-0.0979 0.03704,-0.203729 0.05821,-0.301625 0.02117,-0.0979 0.05292,-0.203729 0.08202,-0.296333 0.0291,-0.0926 0.06614,-0.193146 0.103187,-0.288396 0.03704,-0.09525 0.07408,-0.1905 0.116417,-0.280459 0.04233,-0.08996 0.09525,-0.195791 0.134937,-0.264583 0.03969,-0.06879 0.105834,-0.185208 0.161396,-0.264583 0.05556,-0.07937 0.116417,-0.185209 0.166688,-0.264584 0.05027,-0.07938 0.124354,-0.169333 0.1905,-0.251354 0.06615,-0.08202 0.140229,-0.169333 0.214312,-0.264583 0.07408,-0.09525 0.142875,-0.156104 0.216958,-0.230188 v 0 a 6.0563125,6.0563125 0 0 0 1.5875,-2.738437 5.0588333,5.0588333 0 0 0 -3.571875,-6.188604 4.2597917,4.2597917 0 0 0 -5.19377,3.024187 3.5454167,3.5454167 0 0 0 -0.0635,1.5875 3.6247917,3.6247917 0 0 0 2.616729,2.844271 3.1035625,3.1035625 0 0 0 3.807354,-2.203979 2.8019375,2.8019375 0 0 0 0.08467,-0.672042 h -2.116674 a 0.52916667,0.52916667 0 0 1 -0.01588,0.134938 0.98160417,0.98160417 0 0 1 -1.209146,0.690562 1.4975417,1.4975417 0 0 1 -1.084792,-1.180041 1.4631458,1.4631458 0 0 1 0.02646,-0.650875 2.1404792,2.1404792 0 0 1 2.616729,-1.510771 2.936875,2.936875 0 0 1 2.079625,3.590396 3.9158333,3.9158333 0 0 1 -1.037167,1.780645 3.96875,3.96875 0 0 1 -3.563937,1.058334 l -0.103184,-0.108473 h -0.264583 l -0.124354,-0.04233 -0.124354,-0.121708 h -0.304271 a 6.0325,6.0325 0 0 0 -4.926542,0.912812 5.0508958,5.0508958 0 0 0 -1.240896,7.035271 4.2545,4.2545 0 0 0 5.921375,1.037167 3.6115625,3.6115625 0 0 0 0.886354,-5.027083 3.063875,3.063875 0 0 0 -1.997604,-1.280584 3.1062083,3.1062083 0 0 0 -2.333625,0.529167 2.7516667,2.7516667 0 0 0 -0.502708,0.468312 l 1.637771,1.341438 a 0.63764583,0.63764583 0 0 1 0.08996,-0.08202 0.98425,0.98425 0 0 1 1.375833,0.246063 1.4975417,1.4975417 0 0 1 -0.36777,2.08227 2.1378333,2.1378333 0 0 1 -2.973917,-0.529166 2.9342292,2.9342292 0 0 1 0.719667,-4.093104 3.9184792,3.9184792 0 0 1 3.296708,-0.568855 h 0.05556 c 0.07937,0.02381 0.156105,0.04763 0.227542,0.07408 l 0.113771,0.04498 0.05821,0.02381 v 0 a 3.9026042,3.9026042 0 0 1 1.68275,1.322917 l 0.04233,0.08467 0.05027,0.05027 c 0.04498,0.06614 0.08467,0.134937 0.127,0.201083 0.04233,0.06615 0.0926,0.164042 0.134938,0.246062 0.04233,0.08202 0.09525,0.198438 0.129646,0.280459 0.0344,0.08202 0.08202,0.201083 0.111125,0.288396 0.0291,0.08731 0.0635,0.195791 0.08731,0.288395 l 0.04233,0.15875 c 0.02381,0.137584 0.05027,0.264584 0.08202,0.407459 a 6.0510208,6.0510208 0 0 0 5.339292,4.553479 c 0.150813,0.01323 0.298979,0.02117 0.447146,0.02117 a 5.0588333,5.0588333 0 0 0 5.027083,-4.611688 4.2650833,4.2650833 0 0 0 -3.852333,-4.595812 z" />
      </g>
    </symbol>
    <symbol
       id="wheel_of_taranis_black">
      <g
         id="wheel_of_taranis_black_transform"
         transform="matrix(45.454544,0,0,45.454544,-7077.4145,-2992.8954)">
        <path
           style="stroke-width:0.264583"
           id="path136252"
           d="M 32.127976,95.3256 A 11.641667,11.641667 0 1 0 43.769643,106.96726 11.654896,11.654896 0 0 0 32.127976,95.3256 Z m 9.464146,10.58333 h -4.278313 a 5.3154792,5.3154792 0 0 0 -4.1275,-4.1275 v -4.27831 a 9.5382292,9.5382292 0 0 1 8.405813,8.40581 z m -9.464146,4.23333 a 3.175,3.175 0 1 1 3.175,-3.175 3.175,3.175 0 0 1 -3.175,3.175 z M 31.069643,97.50312 v 4.27831 a 5.3154792,5.3154792 0 0 0 -4.1275,4.1275 H 22.66383 a 9.5382292,9.5382292 0 0 1 8.405813,-8.40581 z M 22.66383,108.0256 h 4.278313 a 5.3154792,5.3154792 0 0 0 4.1275,4.1275 v 4.27831 A 9.5382292,9.5382292 0 0 1 22.66383,108.0256 Z m 10.522479,8.40581 v -4.27831 a 5.3154792,5.3154792 0 0 0 4.1275,-4.1275 h 4.278313 a 9.5382292,9.5382292 0 0 1 -8.405813,8.40581 z" />
      </g>
    </symbol>
    <symbol
       id="brigid_outline"
       style="stroke:#000000;stroke-opacity:1">
      <g
         id="brigid_outline_transform"
         transform="matrix(9.7035982,0,0,10.878997,-4812.3661,-1388.8855)">
        <path
           d="m 75,71.42 a 51,51 0 0 1 8.72,0.74 c 0,0.67 -0.1,1.33 -0.18,2 -0.08,0.67 -0.2,1.56 -0.34,2.34 -0.09,0.54 -0.2,1.08 -0.31,1.61 -0.11,0.53 -0.3,1.3 -0.48,1.94 A 43.63,43.63 0 0 0 75,79.42 43,43 0 0 0 67.56,80.06 c -0.66,0.1 -1.32,0.23 -2,0.38 -0.68,0.15 -1.3,0.29 -1.94,0.47 -0.64,0.18 -1.07,0.3 -1.6,0.46 -0.75,0.23 -1.49,0.49 -2.22,0.76 -0.73,0.27 -1.25,0.48 -1.86,0.75 -0.61,0.27 -1.25,0.54 -1.86,0.84 A 43.4,43.4 0 0 0 33.52,109.8 c -0.21,0.63 -0.39,1.28 -0.57,1.92 -0.1,0.38 -0.19,0.75 -0.28,1.13 -0.09,0.38 -0.13,0.55 -0.18,0.82 -0.13,0.54 -0.23,1.09 -0.33,1.63 l -0.41,2.3 -0.29,1.64 -4.19,-0.74 -0.24,-0.07 -3.36,-1.05 0.61,-3.46 c 0,-0.09 0,-0.19 0,-0.28 v 0 a 46.71,46.71 0 0 1 1.49,-6 51.5,51.5 0 0 1 28.79,-31.99 c 0.63,-0.28 1.27,-0.55 1.91,-0.78 0.64,-0.23 1.29,-0.5 1.94,-0.71 0.43,-0.15 0.86,-0.3 1.3,-0.43 0.86,-0.27 1.73,-0.52 2.61,-0.73 0.65,-0.17 1.31,-0.33 2,-0.46 0.69,-0.13 1.32,-0.27 2,-0.38 A 51,51 0 0 1 75,71.42 m 0,-0.25 a 52.43,52.43 0 0 0 -8.77,0.74 c -0.8,0.14 -1.42,0.26 -2,0.39 -0.58,0.13 -1.21,0.26 -2,0.46 -0.79,0.2 -1.66,0.43 -2.62,0.73 -0.45,0.13 -0.89,0.29 -1.31,0.43 -0.63,0.21 -1.29,0.45 -1.95,0.72 -0.66,0.27 -1.16,0.45 -1.92,0.78 a 52,52 0 0 0 -21.03,16.71 51.45,51.45 0 0 0 -7.81,15.38 47.11,47.11 0 0 0 -1.49,6 0.8,0.8 0 0 0 0,0.15 0.59,0.59 0 0 0 0,0.13 l -0.62,3.47 a 0.26,0.26 0 0 0 0.18,0.28 l 3.36,1 h 0.12 0.13 l 4.21,0.75 v 0 a 0.27,0.27 0 0 0 0.25,-0.21 l 0.29,-1.64 0.41,-2.3 v -0.08 c 0.1,-0.51 0.19,-1 0.31,-1.53 0.05,-0.28 0.11,-0.54 0.18,-0.82 0.07,-0.28 0.18,-0.75 0.28,-1.13 v -0.13 c 0.16,-0.59 0.33,-1.19 0.53,-1.77 A 43.11,43.11 0 0 1 40.19,96.99 43.57,43.57 0 0 1 56.25,84 c 0.6,-0.3 1.22,-0.58 1.85,-0.84 0.63,-0.26 1.22,-0.52 1.85,-0.75 0.85,-0.31 1.55,-0.55 2.2,-0.75 0.65,-0.2 1.06,-0.32 1.59,-0.46 0.7,-0.19 1.4,-0.35 1.93,-0.47 0.53,-0.12 1.34,-0.28 2,-0.37 a 42.58,42.58 0 0 1 7.4,-0.64 43.08,43.08 0 0 1 7.35,0.63 v 0 a 0.25,0.25 0 0 0 0.24,-0.18 c 0.18,-0.65 0.33,-1.31 0.48,-2 0.15,-0.69 0.23,-1.09 0.32,-1.63 0.13,-0.74 0.24,-1.51 0.34,-2.35 0.08,-0.69 0.14,-1.35 0.18,-2 A 0.26,0.26 0 0 0 83.77,71.93 52.4,52.4 0 0 0 75,71.17 Z"
           id="path137028" />
        <path
           d="m 95.45,75.65 a 51.94,51.94 0 0 1 21,16.62 51.21,51.21 0 0 1 7.77,15.33 v 0 a 49.87,49.87 0 0 1 1.48,6 v 0.07 c 0,0.09 0,0.18 0,0.27 l 0.61,3.47 -3.37,1 -0.27,0.08 v 0 a 52.47,52.47 0 0 1 -15,2.22 51.41,51.41 0 0 1 -31,-10.42 c -0.55,-0.41 -1.08,-0.83 -1.61,-1.28 -0.53,-0.45 -1,-0.85 -1.54,-1.31 -0.54,-0.46 -0.81,-0.72 -1.21,-1.1 -0.58,-0.55 -1.15,-1.11 -1.7,-1.69 -0.55,-0.58 -0.93,-1 -1.37,-1.48 -0.44,-0.48 -0.89,-1 -1.31,-1.52 A 50.66,50.66 0 0 1 58.62,84.77 c 0.61,-0.27 1.23,-0.52 1.85,-0.75 0.62,-0.23 1.5,-0.54 2.26,-0.78 0.51,-0.16 1,-0.31 1.55,-0.45 0.55,-0.14 1.29,-0.33 2,-0.46 a 42.91,42.91 0 0 0 7.52,14 c 0.41,0.53 0.85,1 1.31,1.56 0.46,0.56 0.89,1 1.37,1.48 0.48,0.48 0.9,0.93 1.38,1.38 0.48,0.45 1,0.92 1.52,1.37 0.52,0.45 1,0.86 1.55,1.26 0.55,0.4 1.06,0.82 1.61,1.2 a 43.41,43.41 0 0 0 32.65,7.44 c 0.66,-0.1 1.31,-0.23 2,-0.38 -0.17,-0.65 -0.36,-1.29 -0.56,-1.93 v 0 A 43.33,43.33 0 0 0 93.86,83.72 q 0.27,-1 0.51,-2 c 0.25,-1 0.47,-2.1 0.66,-3.16 0,-0.29 0.1,-0.58 0.14,-0.88 0.11,-0.68 0.21,-1.36 0.28,-2 m 0,-0.25 a 0.31,0.31 0 0 0 -0.13,0 0.26,0.26 0 0 0 -0.12,0.19 c -0.08,0.76 -0.19,1.49 -0.28,2 0,0.3 -0.09,0.59 -0.14,0.88 -0.19,1.07 -0.41,2.13 -0.65,3.14 -0.16,0.66 -0.33,1.32 -0.51,2 a 0.26,0.26 0 0 0 0.13,0.3 43,43 0 0 1 22.49,25.93 v 0.06 c 0.19,0.6 0.34,1.12 0.47,1.6 -0.6,0.14 -1.15,0.24 -1.69,0.32 a 43.44,43.44 0 0 1 -7.38,0.64 43.24,43.24 0 0 1 -25.08,-8 c -0.57,-0.4 -1.11,-0.8 -1.6,-1.19 -0.49,-0.39 -1,-0.77 -1.55,-1.26 -0.55,-0.49 -1,-0.9 -1.51,-1.36 -0.51,-0.46 -0.93,-0.91 -1.37,-1.37 -0.44,-0.46 -0.92,-1 -1.36,-1.47 -0.44,-0.47 -0.92,-1.06 -1.3,-1.55 a 42.56,42.56 0 0 1 -7.48,-14 0.25,0.25 0 0 0 -0.24,-0.17 H 66.1 c -0.69,0.14 -1.35,0.31 -2,0.47 -0.65,0.16 -1.05,0.29 -1.56,0.45 -0.51,0.16 -1.44,0.46 -2.28,0.79 -0.64,0.23 -1.27,0.49 -1.86,0.75 a 0.24,0.24 0 0 0 -0.14,0.3 50.77,50.77 0 0 0 9.36,17.23 c 0.41,0.5 0.86,1 1.31,1.53 0.45,0.53 0.94,1 1.38,1.48 0.44,0.48 1.05,1.08 1.71,1.7 0.48,0.46 0.86,0.8 1.22,1.11 0.36,0.31 1,0.87 1.54,1.32 0.54,0.45 1.05,0.86 1.62,1.28 a 51.64,51.64 0 0 0 25.79,10.19 50.62,50.62 0 0 0 5.41,0.28 52.41,52.41 0 0 0 15.06,-2.23 v 0 h 0.12 0.15 l 3.36,-1 a 0.26,0.26 0 0 0 0.18,-0.28 l -0.61,-3.47 c 0,-0.06 0,-0.1 0,-0.14 0,-0.04 0,-0.08 0,-0.12 v -0.09 a 51.89,51.89 0 0 0 -1.49,-6 v -0.06 a 51,51 0 0 0 -7.79,-15.34 52,52 0 0 0 -21,-16.7 h -0.1 z"
           id="path137030" />
        <path
           d="m 75,29.25 2.75,2.61 0.1,0.1 A 49.66,49.66 0 0 1 82,36.4 51.35,51.35 0 0 1 93.84,69.25 c 0,1.17 0,2.35 -0.12,3.53 0,0.69 -0.11,1.39 -0.18,2.09 -0.07,0.7 -0.16,1.36 -0.27,2 -0.06,0.45 -0.13,0.9 -0.21,1.34 -0.16,0.9 -0.34,1.79 -0.55,2.67 -0.14,0.66 -0.31,1.32 -0.5,2 -0.19,0.68 -0.35,1.3 -0.56,1.93 A 50.82,50.82 0 0 1 82.14,102 c -0.53,-0.4 -1,-0.82 -1.55,-1.26 -0.55,-0.44 -1,-0.85 -1.45,-1.3 -0.45,-0.45 -1,-1 -1.46,-1.46 -0.46,-0.46 -0.93,-1 -1.37,-1.51 a 42.5,42.5 0 0 0 7.51,-14 c 0.21,-0.63 0.4,-1.28 0.56,-1.93 0.16,-0.65 0.33,-1.29 0.48,-2 0.15,-0.71 0.22,-1.09 0.32,-1.64 0.13,-0.76 0.25,-1.53 0.34,-2.31 0.09,-0.78 0.15,-1.33 0.2,-2 0.05,-0.67 0.08,-1.35 0.1,-2 0,-0.42 0,-0.85 0,-1.27 A 43.34,43.34 0 0 0 76.29,42.15 c -0.42,-0.53 -0.86,-1 -1.3,-1.56 -0.45,0.51 -0.89,1 -1.3,1.56 a 43.17,43.17 0 0 0 -7,12.44 43.64,43.64 0 0 0 -2.55,14.73 c 0,0.42 0,0.85 0,1.27 -0.67,0.13 -1.33,0.28 -2,0.45 -1,0.25 -2.07,0.53 -3.09,0.85 l -0.85,0.27 c -0.66,0.22 -1.32,0.45 -2,0.7 Q 56.08,71.09 56.08,69.32 A 51.19,51.19 0 0 1 68,36.39 50.24,50.24 0 0 1 72.13,32 L 72.26,31.87 75,29.25 M 75,29 a 0.23,0.23 0 0 0 -0.17,0.07 l -2.75,2.61 -0.14,0.13 a 51.49,51.49 0 0 0 -16,37.44 c 0,1.18 0,2.38 0.12,3.56 a 0.25,0.25 0 0 0 0.12,0.19 0.2,0.2 0 0 0 0.13,0 h 0.09 c 0.57,-0.22 1.19,-0.44 2,-0.69 l 0.84,-0.27 c 1,-0.31 2,-0.59 3.08,-0.85 0.67,-0.17 1.32,-0.32 2,-0.44 a 0.26,0.26 0 0 0 0.2,-0.26 c 0,-0.41 0,-0.84 0,-1.26 A 43.26,43.26 0 0 1 67,54.6 42.61,42.61 0 0 1 73.9,42.24 c 0.32,-0.42 0.69,-0.85 1.11,-1.34 0.33,0.39 0.72,0.85 1.1,1.34 a 43.08,43.08 0 0 1 9.48,27 c 0,0.42 0,0.85 0,1.26 0,0.76 -0.06,1.42 -0.1,2 -0.04,0.58 -0.11,1.26 -0.2,2 -0.09,0.74 -0.18,1.4 -0.34,2.3 -0.1,0.54 -0.21,1.09 -0.31,1.63 -0.1,0.54 -0.3,1.31 -0.48,1.93 -0.18,0.62 -0.34,1.28 -0.56,1.92 a 42.18,42.18 0 0 1 -7.46,14 0.24,0.24 0 0 0 0,0.32 c 0.4,0.47 0.85,1 1.38,1.52 0.53,0.52 1,1 1.47,1.47 0.47,0.47 1,0.93 1.46,1.31 0.46,0.38 1,0.85 1.56,1.27 a 0.27,0.27 0 0 0 0.15,0 0.25,0.25 0 0 0 0.19,-0.09 50.93,50.93 0 0 0 9.36,-17.23 c 0.21,-0.64 0.41,-1.3 0.56,-1.94 0.15,-0.64 0.37,-1.34 0.5,-2 0.2,-0.83 0.38,-1.71 0.56,-2.68 q 0.12,-0.66 0.21,-1.35 c 0.11,-0.67 0.19,-1.36 0.27,-2 0.08,-0.64 0.13,-1.41 0.18,-2.1 0.08,-1.18 0.12,-2.38 0.12,-3.55 A 51.54,51.54 0 0 0 82.21,36.23 49.54,49.54 0 0 0 78,31.78 0.38,0.38 0 0 0 78,31.7 L 75.22,29.07 A 0.23,0.23 0 0 0 75,29 Z"
           id="path137032" />
        <path
           d="m 67.58,104.67 c 0.43,0.5 0.89,1 1.36,1.49 0.63,0.66 1.27,1.31 1.94,1.94 0.32,0.31 0.65,0.61 1,0.89 0.51,0.47 1,0.91 1.54,1.33 A 51.57,51.57 0 0 1 47.73,120.47 51.44,51.44 0 0 1 33.37,120 l 0.35,-2 0.41,-2.34 c 0.09,-0.53 0.2,-1.06 0.31,-1.59 0.11,-0.53 0.3,-1.3 0.48,-2 a 43.4,43.4 0 0 0 7.4,0.64 43.5,43.5 0 0 0 25.26,-8.08 m 0,-0.25 a 0.3,0.3 0 0 0 -0.15,0 43.14,43.14 0 0 1 -32.43,7.48 v 0 a 0.25,0.25 0 0 0 -0.24,0.18 c -0.18,0.65 -0.34,1.32 -0.48,2 -0.14,0.68 -0.23,1.07 -0.32,1.6 l -0.49,2.36 -0.35,2 a 0.26,0.26 0 0 0 0.21,0.29 51.69,51.69 0 0 0 9,0.79 50.57,50.57 0 0 0 5.4,-0.28 51.57,51.57 0 0 0 25.81,-10.2 0.26,0.26 0 0 0 0.1,-0.2 0.23,0.23 0 0 0 -0.09,-0.19 c -0.53,-0.43 -1,-0.86 -1.53,-1.32 -0.33,-0.28 -0.66,-0.58 -1,-0.89 -0.58,-0.55 -1.2,-1.16 -1.93,-1.93 -0.51,-0.53 -1,-1 -1.35,-1.48 a 0.25,0.25 0 0 0 -0.19,-0.09 z"
           id="path137034" />
      </g>
    </symbol>
    <symbol
       id="bull_outline"
       style="stroke:#000000;stroke-opacity:1">
      <g
         id="bull_outline_transform"
         transform="matrix(36.543027,0,0,36.543027,-9837.6824,-1397.6649)">
        <path
           style="stroke-width:0.264583"
           d="m 170.92087,42.749142 1.00542,2.95275 a 6.0192708,6.0192708 0 0 1 0.3175,1.928813 c 0,2.256896 -2.33627,4.696354 -7.14375,7.455958 -0.17462,0.103188 -0.3519,0.201083 -0.52917,0.298979 v 0 c 0,2.016125 -1.79123,4.296834 -3.41841,5.953125 a 2.8495625,2.8495625 0 0 1 0.18785,4.548188 3.4395833,3.4395833 0 0 1 -6.76804,0 2.8522083,2.8522083 0 0 1 0.18521,-4.548188 c -1.62719,-1.651 -3.41577,-3.931708 -3.41577,-5.947833 v 0 l -0.52917,-0.298979 c -4.80748,-2.764896 -7.14375,-5.204354 -7.14375,-7.46125 a 6.0192708,6.0192708 0 0 1 0.32015,-1.928813 l 1.00277,-2.95275 1.00012,2.955396 c 1.08744,3.209396 6.23094,5.630333 11.96446,5.630333 5.73352,0 10.87702,-2.420937 11.96181,-5.630333 l 1.00277,-2.955396 m -18.86743,10.609792 c 0.0873,-0.103188 0.17727,-0.206375 0.26458,-0.304271 0.0873,-0.0979 0.18256,-0.166687 0.28046,-0.243417 a 17.727083,17.727083 0 0 1 -3.24909,-1.137708 c 0.82815,0.574146 1.74625,1.156229 2.70405,1.685396 m 11.80306,0 c 0.95779,-0.547688 1.8706,-1.113896 2.69081,-1.680104 a 17.750896,17.750896 0 0 1 -3.24644,1.150937 3.556,3.556 0 0 1 0.28046,0.243417 3.6644792,3.6644792 0 0 1 0.26459,0.304271 m -5.88963,0.164041 h -0.17198 c -0.83079,0 -2.81252,0.156105 -3.79148,0.881063 1.34409,0.693208 2.70669,1.322917 3.96875,1.852083 1.25677,-0.529166 2.61938,-1.161521 3.96875,-1.852083 -0.97631,-0.722313 -2.9501,-0.881063 -3.78619,-0.881063 h -0.18785 m 0,7.892521 c 1.50283,-1.277937 3.34433,-3.175 4.11956,-4.738687 -2.05316,1.021291 -3.62479,1.666875 -3.72004,1.703916 l -0.39952,0.164042 -0.39952,-0.164042 c -0.0952,-0.03704 -1.66952,-0.682625 -3.72269,-1.703916 0.77523,1.563687 2.61673,3.458104 4.12221,4.738687 m 1.78065,2.910417 a 0.67733333,0.67733333 0 1 0 -0.52917,-0.661458 0.61647917,0.61647917 0 0 0 0.52917,0.661458 m -3.5613,0 a 0.67733333,0.67733333 0 1 0 -0.52916,-0.661458 0.61647917,0.61647917 0 0 0 0.52916,0.661458 m 1.78065,2.270125 a 1.3070417,1.3070417 0 0 0 0.8599,-0.325438 2.6617083,2.6617083 0 0 1 -0.8599,-0.552979 2.6617083,2.6617083 0 0 1 -0.8599,0.552979 1.3070417,1.3070417 0 0 0 0.8599,0.325438 m 12.96458,-23.931563 v 0 a 0.06879167,0.06879167 0 0 0 -0.0635,0.04498 l -0.99483,2.958042 c -1.08479,3.175 -6.19919,5.582709 -11.90625,5.582709 -5.70706,0 -10.82146,-2.407709 -11.90625,-5.582709 l -0.99219,-2.958042 a 0.06879167,0.06879167 0 0 0 -0.0635,-0.04498 v 0 a 0.0635,0.0635 0 0 0 -0.0608,0.04498 l -1.00012,2.958042 a 5.9954583,5.9954583 0 0 0 -0.32544,1.949979 c 0,2.280709 2.3495,4.738688 7.17815,7.514167 l 0.49477,0.280458 c 0.0212,2.037292 1.83356,4.325938 3.38137,5.910792 a 2.9104167,2.9104167 0 0 0 -0.14552,4.587875 3.5030833,3.5030833 0 0 0 6.87917,0 2.9104167,2.9104167 0 0 0 -0.14552,-4.590521 c 1.54781,-1.5875 3.36021,-3.878791 3.38137,-5.910791 l 0.49477,-0.280459 c 4.82865,-2.775479 7.17815,-5.233458 7.17815,-7.514166 a 5.9954583,5.9954583 0 0 0 -0.32544,-1.947334 l -1.00542,-2.95275 a 0.0635,0.0635 0 0 0 -0.0609,-0.04498 z m -18.88331,10.596563 c -0.73289,-0.420688 -1.41287,-0.836083 -2.01877,-1.243542 a 18.203333,18.203333 0 0 0 2.45798,0.812271 c -0.0661,0.05556 -0.127,0.111125 -0.18256,0.164042 a 3.5903958,3.5903958 0 0 0 -0.24607,0.264583 z m 11.40883,-0.431271 a 18.25625,18.25625 0 0 0 2.4474,-0.812271 c -0.61648,0.407459 -1.29646,0.822854 -2.02671,1.240896 a 3.58775,3.58775 0 0 0 -0.24341,-0.264583 c -0.0556,-0.05292 -0.11642,-0.108479 -0.18257,-0.164042 z m -5.4901,0.759354 h 0.17463 c 0.92604,0 2.70668,0.169334 3.65918,0.79375 -1.26735,0.658813 -2.59027,1.277938 -3.83381,1.801813 -1.24619,-0.529167 -2.5691,-1.143 -3.83381,-1.793875 0.94985,-0.632354 2.73314,-0.79375 3.66183,-0.79375 h 0.17198 z m 0,7.739063 c -1.41287,-1.2065 -3.15648,-2.989792 -3.96875,-4.497917 1.98702,0.978958 3.48192,1.5875 3.54542,1.616604 l 0.40216,0.164042 h 0.0238 0.0238 l 0.40217,-0.164042 c 0.0635,-0.02381 1.55575,-0.635 3.54277,-1.613958 -0.81492,1.513417 -2.55852,3.294062 -3.96875,4.497917 z m 1.78065,2.936875 a 0.61383333,0.61383333 0 1 1 0.46302,-0.605896 0.5476875,0.5476875 0 0 1 -0.46302,0.595312 z m -3.5613,0 a 0.61383333,0.61383333 0 1 1 0.45773,-0.605896 0.5476875,0.5476875 0 0 1 -0.46302,0.595312 z m 1.05834,2.024062 a 2.7516667,2.7516667 0 0 0 0.72231,-0.481541 2.6696458,2.6696458 0 0 0 0.73025,0.481541 1.2276667,1.2276667 0 0 1 -1.4605,0 z"
           id="path135600" />
      </g>
    </symbol>
    <symbol
       id="cross_outline"
       style="stroke:#000000;stroke-opacity:1">
      <g
         id="cross_outline_transform"
         transform="matrix(52.0833,0,0,52.0833,-12397.827,-2777.1417)">
        <path
           style="stroke-width:0.264583"
           d="m 162.55495,77.868896 -0.28575,3.58246 a 7.0405625,7.0405625 0 0 1 3.37343,3.37609 l 3.61686,-0.29105 v 6.52727 l -3.61686,-0.29104 a 7.000875,7.000875 0 0 1 -3.54806,3.45546 l 0.41275,11.517314 h -6.42937 l 0.41275,-11.517314 a 7.000875,7.000875 0 0 1 -3.54807,-3.45546 l -3.61685,0.29104 v -6.52727 l 3.61685,0.29105 a 7.0405625,7.0405625 0 0 1 3.37344,-3.37609 l -0.28575,-3.58246 h 6.52463 m -3.93171,5.88963 a 3.8787917,3.8787917 0 0 1 1.33879,0 l 0.30163,-3.77296 h -1.94205 l 0.30163,3.77296 m -2.39977,1.32292 a 4.0745833,4.0745833 0 0 1 0.35454,-0.35455 l -0.0767,-0.95514 a 4.9635833,4.9635833 0 0 0 -1.23296,1.23296 l 0.95515,0.0767 m 6.13833,0 0.95515,-0.0767 a 4.9635833,4.9635833 0 0 0 -1.23296,-1.23296 l -0.0767,0.95514 a 4.0745833,4.0745833 0 0 1 0.35454,0.35455 m -2.52148,0.64029 h 0.34396 a 0.82020833,0.82020833 0 0 0 -0.34396,-0.34661 v 0.34661 m -1.43933,0 h 0.34395 v -0.34925 a 0.83608333,0.83608333 0 0 0 -0.34395,0.34925 m 1.43933,1.53458 h 0.43921 v -0.4445 h -0.43921 v 0.44185 m -1.53458,0 h 0.4392 v -0.44185 h -0.4392 v 0.44185 m 8.83708,1.51607 v -1.9394 l -3.80735,0.30427 a 3.8338125,3.8338125 0 0 1 0,1.32292 l 3.80735,0.30427 m -15.70038,0 3.80736,-0.30427 a 3.8338125,3.8338125 0 0 1 0,-1.32292 l -3.80736,-0.30427 v 1.9394 m 9.92982,-1.51607 h 0.34925 a 0.841375,0.841375 0 0 0 -0.34925,-0.34395 v 0.34395 m -4.49792,0 h 0.34925 v -0.34395 a 0.841375,0.841375 0 0 0 -0.34925,0.34395 m 4.49792,1.43669 a 0.81491667,0.81491667 0 0 0 0.3466,-0.34131 h -0.3466 v 0.34131 m -1.53194,0.0979 h 0.43921 v -0.43921 h -0.43921 v 0.43921 m -1.53458,0 h 0.4392 v -0.43921 h -0.4392 v 0.43921 m -1.09273,-0.0979 v -0.34131 h -0.34661 a 0.81491667,0.81491667 0 0 0 0.34661,0.34131 m 2.62731,1.52929 a 0.82020833,0.82020833 0 0 0 0.34396,-0.3466 h -0.34396 v 0.3466 m -1.09538,0 v -0.33866 h -0.34395 a 0.83608333,0.83608333 0 0 0 0.34395,0.33866 m 3.26496,1.64571 a 4.873625,4.873625 0 0 0 1.30704,-1.28587 l -0.95514,-0.0688 a 3.77825,3.77825 0 0 1 -0.38629,0.38364 l 0.0344,0.97896 m -5.43454,0 0.0344,-0.97896 a 3.77825,3.77825 0 0 1 -0.3863,-0.38364 l -0.95514,0.0767 a 4.873625,4.873625 0 0 0 1.30704,1.28587 m 1.69862,11.755444 h 2.0373 L 159.8933,91.854736 a 3.81,3.81 0 0 1 -1.20121,0 l -0.41804,11.773964 m 4.28096,-25.825984 h -6.52463 a 0.0635,0.0635 0 0 0 -0.0503,0.0212 0.06879167,0.06879167 0 0 0 -0.0159,0.0503 l 0.28311,3.53748 a 7.0749583,7.0749583 0 0 0 -3.34434,3.34433 l -3.57187,-0.28575 v 0 a 0.07408333,0.07408333 0 0 0 -0.045,0.0185 0.06614583,0.06614583 0 0 0 -0.0212,0.0476 v 6.52727 a 0.06614583,0.06614583 0 0 0 0.0212,0.0476 0.07408333,0.07408333 0 0 0 0.045,0.0185 v 0 l 3.57187,-0.28575 a 7.064375,7.064375 0 0 0 3.51896,3.43958 l -0.4101,11.461744 a 0.08202083,0.08202083 0 0 0 0.0185,0.0476 0.06879167,0.06879167 0 0 0 0.0476,0.0185 h 6.42938 a 0.06879167,0.06879167 0 0 0 0.0476,-0.0185 0.08202083,0.08202083 0 0 0 0.0185,-0.0476 l -0.41012,-11.474984 a 7.08025,7.08025 0 0 0 3.52161,-3.43958 l 3.56923,0.28575 v 0 a 0.07408333,0.07408333 0 0 0 0.045,-0.0185 0.06614583,0.06614583 0 0 0 0.0212,-0.0476 v -6.51404 a 0.06614583,0.06614583 0 0 0 -0.0212,-0.0476 0.07408333,0.07408333 0 0 0 -0.045,-0.0185 v 0 l -3.57188,0.28575 a 7.0749583,7.0749583 0 0 0 -3.34433,-3.34433 l 0.2831,-3.53747 a 0.06085417,0.06085417 0 0 0 -0.0185,-0.0503 0.0555625,0.0555625 0 0 0 -0.0476,-0.0212 z m -4.1619,2.24896 h 1.79917 l -0.29104,3.63273 a 3.7041667,3.7041667 0 0 0 -1.21709,0 z m -3.00302,4.90273 a 4.8021875,4.8021875 0 0 1 1.05833,-1.05834 l 0.0635,0.79375 a 4.3815,4.3815 0 0 0 -0.3122,0.31486 l -0.79375,-0.0661 z m 6.68602,-0.24871 0.0635,-0.79375 a 4.8021875,4.8021875 0 0 1 1.05833,1.05833 l -0.79375,0.0661 a 4.3815,4.3815 0 0 0 -0.3122,-0.31485 z m -2.16958,0.94721 v -0.1614 a 0.7064375,0.7064375 0 0 1 0.15875,0.1614 z m -1.38642,0 a 0.75141667,0.75141667 0 0 1 0.15875,-0.15875 v 0.15875 z m 1.38642,1.22502 h 0.30691 v 0.30956 h -0.30691 z m -1.53459,0 h 0.30692 v 0.30956 h -0.30692 z m -6.86329,1.82033 v -1.79652 l 3.66448,0.29369 a 3.8602708,3.8602708 0 0 0 0,1.20914 z m 11.90625,-1.50283 3.66448,-0.29369 v 1.79652 l -3.66712,-0.29369 a 3.8602708,3.8602708 0 0 0 0,-1.20914 z m -1.97379,0 v -0.15875 a 0.76464583,0.76464583 0 0 1 0.1614,0.15875 z m -4.45294,0 a 0.76464583,0.76464583 0 0 1 0.1614,-0.15875 v 0.15875 z m 4.45294,1.22766 h 0.1614 a 0.7540625,0.7540625 0 0 1 -0.1614,0.15611 z m -1.53194,0 h 0.30692 v 0.30692 h -0.30956 v -0.31485 z m -1.53458,0 h 0.30692 v 0.30692 h -0.30957 v -0.31485 z m -1.38642,0 h 0.1614 v 0.15611 a 0.7540625,0.7540625 0 0 1 -0.1614,-0.15611 z m 2.91042,1.53194 h 0.15875 a 0.7064375,0.7064375 0 0 1 -0.15875,0.1614 z m -1.38642,0 h 0.15875 v 0.15875 a 0.75141667,0.75141667 0 0 1 -0.15875,-0.15875 z m -3.12208,0.69056 0.79375,-0.0661 a 3.8867292,3.8867292 0 0 0 0.34925,0.34396 l -0.0318,0.8255 a 4.826,4.826 0 0 1 -1.12183,-1.10331 z m 6.65163,0.26459 a 3.8867292,3.8867292 0 0 0 0.34925,-0.34396 l 0.79375,0.0661 a 4.8895,4.8895 0 0 1 -1.12184,1.10596 l -0.0318,-0.82815 z m -3.70417,12.639144 0.41539,-11.641664 a 3.6538958,3.6538958 0 0 0 1.07421,0 l 0.4154,11.641664 z"
           id="path135604" />
      </g>
    </symbol>
    <symbol
       id="double_spiral_outline_"
       style="stroke:#000000;stroke-opacity:1">
      <g
         id="double_spiral_outline__transform"
         transform="matrix(44.977005,0,0,44.977005,-9835.3375,-6007.1167)">
        <path
           style="stroke-width:0.264583"
           d="m 167.332,117.22365 a 4.2333333,4.2333333 0 0 1 0.95514,0.11113 5.0508958,5.0508958 0 0 1 3.78619,6.05896 6.0616042,6.0616042 0 0 1 -5.88433,4.69106 6.1489167,6.1489167 0 0 1 -1.35996,-0.1561 6.8791667,6.8791667 0 0 1 -3.08504,-1.651 7.9375,7.9375 0 0 1 -1.80975,-2.50296 c -0.47625,-1.03188 -0.81227,-2.07169 -1.6219,-2.91042 a 4.778375,4.778375 0 0 0 -2.34156,-1.35731 3.9184792,3.9184792 0 0 0 -4.71488,2.93952 2.9342292,2.9342292 0 0 0 2.19869,3.51896 2.1325417,2.1325417 0 0 0 2.56117,-1.5875 1.4234583,1.4234583 0 0 0 0,-0.65088 1.49225,1.49225 0 0 0 -1.12448,-1.143 0.93397917,0.93397917 0 0 0 -0.2249,-0.0265 0.98689583,0.98689583 0 0 0 -0.95779,0.76465 0.45772917,0.45772917 0 0 0 -0.0132,0.13229 l -2.11666,0.0847 a 2.6802292,2.6802292 0 0 1 0.0582,-0.70644 3.1115,3.1115 0 0 1 3.01889,-2.40771 3.0427083,3.0427083 0 0 1 0.70379,0.082 3.6221458,3.6221458 0 0 1 2.72786,2.75431 3.5639375,3.5639375 0 0 1 0,1.5875 4.2333333,4.2333333 0 0 1 -5.10911,3.1803 5.0508958,5.0508958 0 0 1 -3.78618,-6.05896 6.0589583,6.0589583 0 0 1 5.88433,-4.69106 5.9928125,5.9928125 0 0 1 1.35996,0.1561 6.7759792,6.7759792 0 0 1 2.82575,1.4314 7.62,7.62 0 0 1 1.91558,2.42358 c 0.52917,1.04246 0.82815,2.16958 1.6219,3.05858 a 4.8392292,4.8392292 0 0 0 2.49502,1.50813 4.0613542,4.0613542 0 0 0 0.88371,0.10054 3.9343542,3.9343542 0 0 0 3.83116,-3.048 2.9342292,2.9342292 0 0 0 -2.19869,-3.51896 2.016125,2.016125 0 0 0 -0.48418,-0.0556 2.1351875,2.1351875 0 0 0 -2.07698,1.65629 1.4234583,1.4234583 0 0 0 0,0.65088 1.49225,1.49225 0 0 0 1.12448,1.143 1.0874375,1.0874375 0 0 0 0.22489,0.0265 0.99483333,0.99483333 0 0 0 0.52917,-0.15082 0.97895833,0.97895833 0 0 0 0.43656,-0.61383 0.45772917,0.45772917 0 0 0 0,-0.13229 l 2.11667,-0.0847 a 2.6802292,2.6802292 0 0 1 -0.0662,0.69321 3.1062083,3.1062083 0 0 1 -3.0189,2.40506 3.190875,3.190875 0 0 1 -0.70379,-0.0794 3.6221458,3.6221458 0 0 1 -2.71462,-2.74638 3.5639375,3.5639375 0 0 1 0,-1.5875 4.2624375,4.2624375 0 0 1 4.14602,-3.302 m 0,-0.0662 a 4.3523958,4.3523958 0 0 0 -4.20159,3.36286 3.5771667,3.5771667 0 0 0 0,1.60602 3.683,3.683 0 0 0 2.7649,2.80458 3.175,3.175 0 0 0 3.80206,-2.38125 2.7701875,2.7701875 0 0 0 0.0688,-0.70908 0.06614583,0.06614583 0 0 0 -0.0212,-0.0476 0.0714375,0.0714375 0 0 0 -0.045,-0.0159 v 0 l -2.11666,0.0847 a 0.06614583,0.06614583 0 0 0 -0.0635,0.037 0.07408333,0.07408333 0 0 0 -0.0159,0.0476 0.4445,0.4445 0 0 1 0,0.11377 0.91016667,0.91016667 0 0 1 -0.40746,0.5715 0.92339583,0.92339583 0 0 1 -0.48684,0.14288 0.809625,0.809625 0 0 1 -0.20902,-0.0265 1.4340417,1.4340417 0 0 1 -1.08214,-1.1139 1.4102292,1.4102292 0 0 1 0,-0.62177 2.0849167,2.0849167 0 0 1 2.01348,-1.60338 1.9870208,1.9870208 0 0 1 0.46831,0.0529 2.8680833,2.8680833 0 0 1 2.15106,3.43959 3.857625,3.857625 0 0 1 -4.6355,2.91041 4.7625,4.7625 0 0 1 -2.45004,-1.49489 c -0.55298,-0.61648 -0.85989,-1.32292 -1.18533,-2.0955 -0.13229,-0.31221 -0.26458,-0.63765 -0.42598,-0.94985 a 7.7364167,7.7364167 0 0 0 -1.93675,-2.44475 6.8632917,6.8632917 0 0 0 -2.85221,-1.44727 6.1171667,6.1171667 0 0 0 -7.32896,4.58522 5.1170417,5.1170417 0 0 0 3.83117,6.13834 4.4185417,4.4185417 0 0 0 0.9816,0.11377 4.3206458,4.3206458 0 0 0 4.20159,-3.35492 3.5771667,3.5771667 0 0 0 0,-1.60602 3.6882917,3.6882917 0 0 0 -2.7649,-2.80458 3.317875,3.317875 0 0 0 -0.71966,-0.082 3.175,3.175 0 0 0 -3.07446,2.45798 2.7807708,2.7807708 0 0 0 -0.0688,0.70908 0.06614583,0.06614583 0 0 0 0.0212,0.0476 0.07408333,0.07408333 0 0 0 0.045,0.0185 v 0 l 2.11666,-0.0847 a 0.08202083,0.08202083 0 0 0 0.0556,-0.0317 0.07408333,0.07408333 0 0 0 0.0159,-0.0476 0.4445,0.4445 0 0 1 0,-0.11377 0.91810417,0.91810417 0 0 1 0.8943,-0.71173 0.93927083,0.93927083 0 0 1 0.20902,0.0238 1.4366875,1.4366875 0 0 1 1.08214,1.1139 1.4102292,1.4102292 0 0 1 0,0.62177 2.0822708,2.0822708 0 0 1 -2.01348,1.60602 1.9896667,1.9896667 0 0 1 -0.46831,-0.0556 2.8680833,2.8680833 0 0 1 -2.15106,-3.43958 3.857625,3.857625 0 0 1 4.63285,-2.91042 4.6963542,4.6963542 0 0 1 2.30982,1.34673 c 0.635,0.65616 0.96837,1.43139 1.32291,2.24896 0.0926,0.21431 0.18521,0.42862 0.28575,0.64293 a 7.9110417,7.9110417 0 0 0 1.81769,2.52413 6.9188542,6.9188542 0 0 0 3.10356,1.66687 6.1886042,6.1886042 0 0 0 1.37584,0.15875 6.0854167,6.0854167 0 0 0 5.95841,-4.74398 5.1170417,5.1170417 0 0 0 -3.82323,-6.13833 4.3047708,4.3047708 0 0 0 -0.97102,-0.11112 z"
           id="path135596" />
      </g>
    </symbol>
    <symbol
       id="druid_sigil_outline"
       style="stroke:#000000;stroke-opacity:1">
      <g
         id="druid_sigil_outline_transform"
         transform="matrix(44.709437,0,0,44.709437,-9888.1837,-6677.5032)">
        <path
           style="stroke-width:0.264583"
           d="m 167.39332,147.53345 v 2.7305 a 11.641667,11.641667 0 0 1 0,20.99734 v 2.7305 h -2.11666 v -1.95528 a 11.699875,11.699875 0 0 1 -5.82084,0 v 1.95528 h -2.11666 v -2.7305 a 11.641667,11.641667 0 0 1 0,-20.99734 v -2.7305 h 2.11666 v 1.95527 a 11.699875,11.699875 0 0 1 5.82084,0 v -1.95527 h 2.11666 m -5.02708,22.75417 a 9.4509167,9.4509167 0 0 0 2.91042,-0.45773 v -18.13454 a 9.4826667,9.4826667 0 0 0 -5.82084,0 v 18.13454 a 9.4509167,9.4509167 0 0 0 2.91042,0.45773 m 5.02708,-1.43933 a 9.525,9.525 0 0 0 0,-16.17134 v 16.17134 m -10.05416,0 v -16.17134 a 9.525,9.525 0 0 0 0,16.17134 m 10.05416,-21.38098 h -2.11666 a 0.06614583,0.06614583 0 0 0 -0.0661,0.0661 v 1.87061 a 11.755437,11.755437 0 0 0 -5.68854,0 v -1.87061 a 0.06614583,0.06614583 0 0 0 -0.0662,-0.0661 h -2.11667 a 0.06614583,0.06614583 0 0 0 -0.0661,0.0661 v 2.68817 a 11.705167,11.705167 0 0 0 0,21.082 v 2.68817 a 0.06614583,0.06614583 0 0 0 0.0661,0.0661 h 2.11667 a 0.06614583,0.06614583 0 0 0 0.0662,-0.0661 v -1.87061 a 11.755437,11.755437 0 0 0 5.68854,0 v 1.87061 a 0.06614583,0.06614583 0 0 0 0.0661,0.0661 h 2.11666 a 0.06614583,0.06614583 0 0 0 0.0662,-0.0661 v -2.68817 a 11.705167,11.705167 0 0 0 0,-21.082 v -2.68817 a 0.06614583,0.06614583 0 0 0 -0.0662,-0.0661 z m -7.87135,4.27566 a 9.42975,9.42975 0 0 1 5.68854,0 v 18.03929 a 9.42975,9.42975 0 0 1 -5.68854,0 z m 7.9375,16.98361 v -15.92792 a 9.445625,9.445625 0 0 1 0,15.92792 z m -10.18646,0 a 9.445625,9.445625 0 0 1 0,-15.92792 z"
           id="path135592" />
      </g>
    </symbol>
    <symbol
       id="sailors_knot_outline"
       style="stroke:#000000;stroke-opacity:1">
      <g
         id="sailors_knot_outline_transform"
         transform="matrix(34.855632,0,0,34.855632,-8305.1256,-4757.3011)">
        <path
           style="stroke-width:0.264583"
           d="m 162.7515,181.17481 a 3.4078333,3.4078333 0 0 1 3.40518,3.40519 3.5110208,3.5110208 0 0 1 -0.0741,0.71173 4.206875,4.206875 0 0 1 0.30427,4.7625 l 2.49238,2.48973 a 4.2015833,4.2015833 0 0 1 4.74662,0.30427 3.33375,3.33375 0 0 1 0.71173,-0.0767 3.4078333,3.4078333 0 0 1 0,6.81302 3.5295417,3.5295417 0 0 1 -0.71173,-0.0741 4.2148125,4.2148125 0 0 1 -4.74927,0.30692 l -2.48708,2.48973 a 4.2095208,4.2095208 0 0 1 -0.30692,4.74662 3.5110208,3.5110208 0 0 1 0.0741,0.71173 3.4078333,3.4078333 0 0 1 -6.81302,0 3.3522708,3.3522708 0 0 1 0.0767,-0.71173 4.1936458,4.1936458 0 0 1 -0.30427,-4.74927 l -2.48973,-2.48973 a 4.2095208,4.2095208 0 0 1 -4.7625,-0.30427 3.5057292,3.5057292 0 0 1 -0.70908,0.0741 3.4078333,3.4078333 0 0 1 0,-6.81302 3.3522708,3.3522708 0 0 1 0.71173,0.0767 4.2015833,4.2015833 0 0 1 4.74662,-0.30427 l 2.49238,-2.49238 a 4.1883542,4.1883542 0 0 1 0.31485,-4.75985 3.3707917,3.3707917 0 0 1 -0.0767,-0.71173 3.4104792,3.4104792 0 0 1 3.40784,-3.40519 m -1.00807,2.61144 a 4.0534167,4.0534167 0 0 1 2.01348,0 1.2726458,1.2726458 0 0 0 -2.01348,0 m 1.00807,2.61673 0.55298,-0.55563 a 2.1007917,2.1007917 0 0 0 -1.10596,0 l 0.24077,0.24342 0.31221,0.31221 m -2.0373,2.03994 0.52917,-0.5424 -0.53446,-0.54504 a 2.032,2.032 0 0 0 0,1.08744 m 4.07459,0 a 2.1166667,2.1166667 0 0 0 0.0847,-0.55563 2.0584583,2.0584583 0 0 0 -0.0714,-0.52917 l -0.52917,0.52917 0.52917,0.52917 m -2.04523,2.45798 0.73818,-0.73819 -0.73818,-0.73819 -0.73819,0.73819 0.73819,0.73819 m -3.79677,3.79677 2.30187,-2.29923 -0.73819,-0.73819 -2.30187,2.29923 0.73819,0.73819 m 7.59354,0 0.73819,-0.73819 -2.29923,-2.29658 -0.73819,0.73818 2.29923,2.29659 m -3.79677,-0.80434 v 0 l -2.29923,2.29923 2.29923,2.29923 v 0 l 2.29658,-2.29923 v 0 l -2.29658,-2.29923 v 0 m 8.26558,0.79375 0.54504,-0.54504 a 2.2251458,2.2251458 0 0 0 -0.52917,-0.0688 2.1166667,2.1166667 0 0 0 -0.55033,0.0741 l 0.52917,0.52917 m -16.53117,0 0.52917,-0.52917 a 2.1166667,2.1166667 0 0 0 -0.53711,-0.0714 2.1854583,2.1854583 0 0 0 -0.52916,0.0688 l 0.54504,0.54504 m 20.6375,2.50561 a 1.2779375,1.2779375 0 0 0 0,-2.01877 4.0745833,4.0745833 0 0 1 0,2.01877 m -24.76235,0 a 4.0534167,4.0534167 0 0 1 0,-2.01348 1.2752917,1.2752917 0 0 0 0,2.01348 m 18.41499,-0.26458 0.74084,-0.73819 v 0 l -0.73554,-0.73818 -0.74084,0.73818 0.73819,0.73819 m -12.06235,0 0.74083,-0.73819 -0.73554,-0.73818 -0.73819,0.73818 0.73554,0.73555 m -4.28889,-0.18257 0.55562,-0.55298 -0.55562,-0.55298 a 2.032,2.032 0 0 0 0,1.10596 m 20.6375,0 a 2.032,2.032 0 0 0 0,-1.10596 l -0.55563,0.55298 0.55563,0.55298 m -12.54655,3.96875 0.73819,-0.74083 -2.29923,-2.29658 -0.73818,0.73818 2.29922,2.29923 m -6.05102,-2.40506 a 2.1801667,2.1801667 0 0 0 0.55563,-0.0741 l -0.5424,-0.52917 -0.54504,0.52917 a 2.1854583,2.1854583 0 0 0 0.52917,0.0688 m 16.55498,0 a 2.2251458,2.2251458 0 0 0 0.52916,-0.0688 l -0.54504,-0.54504 -0.52916,0.52917 a 2.1166667,2.1166667 0 0 0 0.55033,0.0741 m -6.04308,2.43416 2.29658,-2.29658 -0.73819,-0.73819 -2.29658,2.29658 0.73819,0.73819 m -2.23573,2.23309 v 0 l 0.73818,-0.73819 -0.73818,-0.73819 -0.73819,0.73819 0.73819,0.73819 m -2.04259,2.04258 0.54769,-0.54504 -0.52917,-0.52917 a 2.0425833,2.0425833 0 0 0 -0.0767,0.55563 2.06375,2.06375 0 0 0 0.0714,0.52916 m 4.08252,0 a 2.0584583,2.0584583 0 0 0 0.0714,-0.52916 2.1166667,2.1166667 0 0 0 -0.0741,-0.55034 l -0.52916,0.52917 0.52916,0.54239 m -2.03993,1.5875 a 2.0214167,2.0214167 0 0 0 0.55298,-0.0767 l -0.56357,-0.56091 -0.55034,0.55562 a 2.0928542,2.0928542 0 0 0 0.55034,0.0741 m 0,2.48444 a 1.2805833,1.2805833 0 0 0 1.00541,-0.49477 4.0534167,4.0534167 0 0 1 -2.01348,0 1.2805833,1.2805833 0 0 0 1.00807,0.49213 m 0,-27.93207 a 3.4633958,3.4633958 0 0 0 -3.40255,4.16455 4.2571458,4.2571458 0 0 0 -0.30162,4.75456 l -2.43417,2.43416 a 4.270375,4.270375 0 0 0 -4.7625,0.31486 3.4713333,3.4713333 0 1 0 -0.6932,6.87916 3.6644792,3.6644792 0 0 0 0.6932,-0.0688 4.2333333,4.2333333 0 0 0 2.61409,0.89165 4.3074167,4.3074167 0 0 0 2.14312,-0.57415 l 2.41565,2.41565 a 4.2941875,4.2941875 0 0 0 -0.57679,2.14313 4.2465625,4.2465625 0 0 0 0.89429,2.61408 3.4713333,3.4713333 0 1 0 6.80243,0 4.2333333,4.2333333 0 0 0 0.8943,-2.61144 4.2968333,4.2968333 0 0 0 -0.57415,-2.14048 l 2.41829,-2.41829 a 4.2809583,4.2809583 0 0 0 2.13784,0.57415 4.2333333,4.2333333 0 0 0 2.61408,-0.89429 3.4739792,3.4739792 0 1 0 0,-6.80244 4.2650833,4.2650833 0 0 0 -4.74398,-0.32279 l -2.41829,-2.41829 a 4.3074167,4.3074167 0 0 0 0.57414,-2.14313 4.2333333,4.2333333 0 0 0 -0.89429,-2.61144 3.4660417,3.4660417 0 0 0 -3.39989,-4.18041 z m -0.81492,2.56646 a 1.2012083,1.2012083 0 0 1 1.62719,0 4.0772292,4.0772292 0 0 0 -1.62719,0 z m 0.39158,2.21192 a 2.1166667,2.1166667 0 0 1 0.42334,-0.0397 2.0875625,2.0875625 0 0 1 0.42068,0.045 l -0.42068,0.41804 -0.26459,-0.26458 z m -1.5875,2.42358 a 1.9737917,1.9737917 0 0 1 0,-0.8255 l 0.42334,0.4154 -0.41275,0.4101 z m 3.59834,-0.4101 0.41275,-0.41275 a 1.8997083,1.8997083 0 0 1 0.0423,0.39952 2.0928542,2.0928542 0 0 1 -0.045,0.42333 z m -2.23309,2.23573 0.64559,-0.64559 0.64558,0.64559 -0.64558,0.64558 -0.64294,-0.64558 z m -3.79412,3.79677 2.20662,-2.20663 0.64559,0.64294 -2.20927,2.20927 z m 6.02721,-1.56369 0.64293,-0.64294 2.20398,2.20398 -0.63764,0.64823 z m -3.79148,3.79677 2.20398,-2.20398 2.20662,2.20398 -2.20662,2.20398 z m 10.05416,-2.00025 a 1.9605625,1.9605625 0 0 1 0.82286,0 l -0.40746,0.41275 -0.4101,-0.4101 z m -16.53645,0 a 2.1166667,2.1166667 0 0 1 0.40216,-0.0397 1.9182292,1.9182292 0 0 1 0.42334,0.045 l -0.40482,0.40746 -0.41539,-0.41539 z m 21.16666,2.82046 a 4.1036875,4.1036875 0 0 0 0,-1.63248 1.2091458,1.2091458 0 0 1 0,1.63248 z m -24.9846,0 a 1.2038542,1.2038542 0 0 1 -0.30427,-0.82021 1.2170833,1.2170833 0 0 1 0.31485,-0.81491 4.0772292,4.0772292 0 0 0 0,1.62718 z m 17.89377,-0.82021 0.64294,-0.64293 0.64293,0.64293 -0.64293,0.64559 z m -12.06236,0 0.64294,-0.64293 0.64294,0.64293 -0.64294,0.6403 z m -3.60627,0.42334 a 1.905,1.905 0 0 1 0,-0.84667 l 0.42334,0.42333 z m 20.1348,-0.42334 0.42068,-0.42068 a 1.8811875,1.8811875 0 0 1 0,0.84137 z m -14.2875,2.23573 0.63764,-0.64823 2.20663,2.20663 -0.64294,0.64558 -2.20663,-2.20398 z m -4.23334,-0.23018 0.39952,-0.41805 0.41011,0.41011 a 1.9182292,1.9182292 0 0 1 -0.42334,0.045 2.0663958,2.0663958 0 0 1 -0.39952,-0.0397 z m 16.53381,0 0.39688,-0.41805 0.41275,0.41011 a 1.9605625,1.9605625 0 0 1 -0.82285,0 z m -6.2812,1.79122 2.20662,-2.20927 0.64558,0.64559 -2.20397,2.20133 z m -2.23309,2.23309 0.64559,-0.64559 0.64558,0.64559 -0.64558,0.64558 z m -1.3626,2.64583 a 1.984375,1.984375 0 0 1 0,-0.82814 l 0.42069,0.41804 -0.4154,0.41539 z m 3.59569,-0.4101 0.40745,-0.40746 a 2.0663958,2.0663958 0 0 1 0.045,0.42069 1.8997083,1.8997083 0 0 1 -0.0423,0.39952 z m -2.01348,2.01348 0.42333,-0.42334 0.42069,0.42334 a 2.1325417,2.1325417 0 0 1 -0.41804,0.0397 2.0663958,2.0663958 0 0 1 -0.42069,-0.045 z m 0.42598,2.52941 a 1.2012083,1.2012083 0 0 1 -0.81492,-0.3175 4.0772292,4.0772292 0 0 0 1.62719,0 1.2012083,1.2012083 0 0 1 -0.81227,0.3175 z"
           id="path135588" />
      </g>
    </symbol>
    <symbol
       id="tree_of_life_outline"
       style="stroke:#000000;stroke-opacity:1">
      <g
         id="tree_of_life_outline_transform"
         transform="matrix(39.024975,0,0,39.024975,-7542.8791,-9378.0481)">
        <path
           style="stroke-width:0.264583"
           d="m 161.69674,216.05 0.72761,0.69056 a 30.466771,30.466771 0 0 1 3.08239,3.4634 31.08325,31.08325 0 0 1 4.14073,-0.26458 c 0.29105,0 0.46832,0 0.49742,0 l 1.00277,0.0265 0.0265,1.00277 a 30.95625,30.95625 0 0 1 -0.26458,4.6355 30.95625,30.95625 0 0 1 3.46869,3.08504 l 0.68791,0.7276 -0.69056,0.72761 c -0.79375,0.84931 -4.97417,5.09323 -7.91104,5.09323 a 5.8393542,5.8393542 0 0 1 -3.63538,-1.2753 c -0.0132,0.0926 -0.0317,0.18786 -0.0476,0.28046 a 10.302875,10.302875 0 0 0 1.71715,3.86556 l 0.0344,0.045 a 10.414,10.414 0 0 0 4.64873,3.60628 l 1.94469,0.75935 -1.75684,1.1139 a 7.0088125,7.0088125 0 0 1 -7.67291,-0.11907 7.0088125,7.0088125 0 0 1 -7.67292,0.11907 l -1.76477,-1.11919 1.95262,-0.75406 a 10.443104,10.443104 0 0 0 4.65402,-3.60892 l 0.0317,-0.045 a 10.276417,10.276417 0 0 0 1.7198,-3.86821 c -0.0159,-0.0926 -0.0344,-0.18785 -0.0476,-0.26458 a 5.8208333,5.8208333 0 0 1 -3.61421,1.27529 c -2.95804,0 -7.12788,-4.23333 -7.9375,-5.09323 l -0.69056,-0.7276 0.69056,-0.72761 a 30.620229,30.620229 0 0 1 3.47133,-3.09562 30.985354,30.985354 0 0 1 -0.26458,-4.63815 l 0.0291,-1.00277 1.00012,-0.0265 c 0.0291,0 0.20638,0 0.49742,0 a 31.109708,31.109708 0 0 1 4.14073,0.26458 31.046208,31.046208 0 0 1 3.0771,-3.46075 l 0.7276,-0.69056 m -0.11112,5.24404 0.11112,-0.11377 0.11378,0.11377 a 7.0696667,7.0696667 0 0 1 1.39964,-0.59002 c -0.55033,-0.66675 -1.09537,-1.26206 -1.51342,-1.69862 -0.41539,0.43391 -0.96308,1.02923 -1.51077,1.69598 a 7.14375,7.14375 0 0 1 1.39965,0.59002 m 7.33954,3.03212 c 0.0847,-0.85989 0.11906,-1.66687 0.12965,-2.26748 -0.60061,0 -1.41023,0.045 -2.27013,0.12965 a 6.8368333,6.8368333 0 0 1 0.60854,1.53194 6.9479583,6.9479583 0 0 1 1.53194,0.60589 m -14.45683,0 a 6.8368333,6.8368333 0 0 1 1.53194,-0.60854 6.8368333,6.8368333 0 0 1 0.60854,-1.53458 c -0.8599,-0.0847 -1.66688,-0.11906 -2.27013,-0.12965 0.0132,0.60061 0.045,1.41023 0.12965,2.27013 m 9.38212,-0.11642 a 5.9002083,5.9002083 0 0 1 1.32292,-0.47096 7.71525,7.71525 0 0 0 -0.635,-1.2065 7.7708125,7.7708125 0 0 0 -1.2991,0.40481 5.7202917,5.7202917 0 0 1 0.60325,1.27265 m -4.30742,0 a 5.8393542,5.8393542 0 0 1 0.60325,-1.27265 7.7708125,7.7708125 0 0 0 -1.29911,-0.40481 7.9507292,7.9507292 0 0 0 -0.635,1.2065 5.8552292,5.8552292 0 0 1 1.32292,0.47096 m 2.16958,3.38138 a 3.7041667,3.7041667 0 0 0 0.33338,-1.4658 v -0.0661 0 a 3.7041667,3.7041667 0 0 0 -0.33338,-1.55575 3.7041667,3.7041667 0 0 0 -0.33602,1.54782 v 0.0741 a 3.730625,3.730625 0 0 0 0.33602,1.46579 m 3.3708,2.16429 a 3.7041667,3.7041667 0 0 0 2.61408,-1.08479 c 0.21431,-0.21166 0.58737,-0.75935 0.89694,-2.11666 a 7.7761042,7.7761042 0 0 0 -1.2065,-0.63236 5.8816875,5.8816875 0 0 1 -2.80723,3.79942 c 0.0926,0 0.1905,0.0238 0.28575,0.0291 h 0.21696 m -6.74159,0 h 0.21696 c 0.0952,0 0.19315,-0.0159 0.2884,-0.0291 a 5.8869792,5.8869792 0 0 1 -2.80988,-3.78619 7.8290208,7.8290208 0 0 0 -1.20385,0.635 c 0.30956,1.34673 0.68262,1.88913 0.89429,2.1008 a 3.7041667,3.7041667 0 0 0 2.61673,1.08479 m 1.13242,-2.15371 a 5.9002083,5.9002083 0 0 1 -0.1905,-1.05833 3.6274375,3.6274375 0 0 0 -1.03717,-0.59796 3.7438542,3.7438542 0 0 0 1.22767,1.651 m 4.47675,0 a 3.7517917,3.7517917 0 0 0 1.22766,-1.65365 3.6644792,3.6644792 0 0 0 -1.03716,0.59796 5.7388125,5.7388125 0 0 1 -0.1905,1.05833 m 5.38691,4.16454 a 26.132896,26.132896 0 0 0 2.78342,-2.33891 c -0.43392,-0.41804 -1.03188,-0.96838 -1.70127,-1.51871 a 5.4398333,5.4398333 0 0 1 -1.22767,2.26219 5.7890833,5.7890833 0 0 1 -1.22767,0.92868 7.0035208,7.0035208 0 0 1 1.37319,0.66675 m -15.25323,0 a 6.9003333,6.9003333 0 0 1 1.37054,-0.6641 5.8869792,5.8869792 0 0 1 -1.23031,-0.93133 5.4636458,5.4636458 0 0 1 -1.22502,-2.26219 c -0.66939,0.55033 -1.26471,1.10067 -1.70127,1.51606 a 25.929167,25.929167 0 0 0 2.78606,2.34156 m 3.70417,10.84792 a 4.8842083,4.8842083 0 0 0 3.22527,-1.21444 l 0.69585,-0.62177 0.6985,0.61384 a 4.8842083,4.8842083 0 0 0 3.22528,1.21443 4.5376042,4.5376042 0 0 0 0.52916,-0.0291 12.514792,12.514792 0 0 1 -3.3311,-3.15648 c -0.0212,-0.0265 -0.0397,-0.0556 -0.0582,-0.082 a 12.279312,12.279312 0 0 1 -1.05834,-1.78593 12.279312,12.279312 0 0 1 -1.05833,1.78593 c -0.0185,0.0265 -0.037,0.0556 -0.0582,0.082 a 12.594167,12.594167 0 0 1 -3.3311,3.15648 4.5376042,4.5376042 0 0 0 0.52916,0.0291 m 3.91319,-26.61443 a 0.06085417,0.06085417 0 0 0 -0.045,0.0185 l -0.7276,0.68791 a 30.972125,30.972125 0 0 0 -3.06652,3.43959 30.662562,30.662562 0 0 0 -4.11162,-0.26459 c -0.28575,0 -0.46303,0 -0.49742,0 l -1.00277,0.0265 a 0.06614583,0.06614583 0 0 0 -0.0635,0.0661 l -0.0291,1.00277 a 31.271104,31.271104 0 0 0 0.26458,4.60639 30.747229,30.747229 0 0 0 -3.43958,3.06917 l -0.69056,0.72761 a 0.06614583,0.06614583 0 0 0 0,0.09 l 0.69056,0.7276 c 0.81226,0.85989 4.99533,5.11969 7.97718,5.11969 a 5.8975625,5.8975625 0 0 0 3.56658,-1.21444 c 0,0.0344 0,0.0661 0.0185,0.10054 v 0.0582 a 10.260542,10.260542 0 0 1 -1.70656,3.83117 l -0.0318,0.045 a 10.371667,10.371667 0 0 1 -4.62491,3.57716 l -1.94469,0.762 a 0.06879167,0.06879167 0 0 0 -0.0423,0.0556 0.06614583,0.06614583 0 0 0 0.0318,0.0609 l 1.76212,1.11919 a 7.0749583,7.0749583 0 0 0 7.71261,-0.10319 7.0723125,7.0723125 0 0 0 7.69937,0.0952 l 1.76477,-1.11919 a 0.0635,0.0635 0 0 0 0.0291,-0.0608 0.06614583,0.06614583 0 0 0 -0.0397,-0.0556 l -1.94468,-0.762 a 10.358437,10.358437 0 0 1 -4.62492,-3.57716 l -0.0318,-0.045 a 10.247312,10.247312 0 0 1 -1.70656,-3.82852 v -0.0556 c 0,-0.0344 0,-0.0714 0.0185,-0.10584 a 5.9293125,5.9293125 0 0 0 3.59833,1.22238 c 2.96333,0 7.14375,-4.25979 7.96131,-5.1144 l 0.68792,-0.7276 a 0.06614583,0.06614583 0 0 0 0,-0.09 l -0.68792,-0.72761 a 30.789562,30.789562 0 0 0 -3.43958,-3.07181 30.839833,30.839833 0 0 0 0.26458,-4.60375 l -0.0265,-1.00277 a 0.06614583,0.06614583 0 0 0 -0.0635,-0.0661 l -1.00277,-0.0265 c -0.0291,0 -0.20902,0 -0.50006,0 a 30.628167,30.628167 0 0 0 -4.10897,0.26458 31.136167,31.136167 0 0 0 -3.06917,-3.43958 l -0.7276,-0.68792 a 0.06085417,0.06085417 0 0 0 -0.045,-0.0185 z m -1.39964,4.68577 c 0.42598,-0.51329 0.89694,-1.03982 1.39964,-1.56634 0.50271,0.52917 0.97367,1.05834 1.39965,1.56634 a 7.1887292,7.1887292 0 0 0 -1.27529,0.54239 l -0.0767,-0.0767 a 0.0635,0.0635 0 0 0 -0.0952,0 l -0.0767,0.0767 a 7.1887292,7.1887292 0 0 0 -1.27529,-0.54239 z m -5.77321,3.55335 c -0.0608,-0.66675 -0.10054,-1.37054 -0.11642,-2.10079 0.52917,0 1.28059,0.0423 2.09815,0.11906 a 6.9453125,6.9453125 0 0 0 -0.55827,1.42081 7.08025,7.08025 0 0 0 -1.42346,0.56092 z m 12.36398,-1.98173 c 0.66675,-0.0609 1.37054,-0.10054 2.10079,-0.11906 0,0.52917 -0.0423,1.28058 -0.11906,2.09815 a 6.9453125,6.9453125 0 0 0 -1.42081,-0.55828 7.1225833,7.1225833 0 0 0 -0.56092,-1.42081 z m -3.54277,0.7329 a 8.0406875,8.0406875 0 0 1 1.16946,-0.35984 7.7681667,7.7681667 0 0 1 0.57679,1.08744 5.889625,5.889625 0 0 0 -1.20386,0.42334 5.7890833,5.7890833 0 0 0 -0.52916,-1.15094 z m -5.04296,0.71966 a 7.7681667,7.7681667 0 0 1 0.57679,-1.08743 8.2020833,8.2020833 0 0 1 1.17211,0.36777 5.6541458,5.6541458 0 0 0 -0.54505,1.15094 5.8208333,5.8208333 0 0 0 -1.20385,-0.42334 z m 3.3946,3.72534 a 3.6644792,3.6644792 0 0 1 -0.26458,-1.29911 v -0.0794 a 3.5930417,3.5930417 0 0 1 0.26458,-1.37583 3.5983333,3.5983333 0 0 1 0.26459,1.38113 c 0,0 0,0 0,0.0159 v 0.0556 a 3.6777083,3.6777083 0 0 1 -0.26459,1.30175 z m 3.07182,2.2516 a 5.953125,5.953125 0 0 0 2.64583,-3.65125 8.1412292,8.1412292 0 0 1 1.08215,0.57415 c -0.30692,1.32291 -0.67469,1.83356 -0.86519,2.02406 a 3.6115625,3.6115625 0 0 1 -2.56911,1.05833 h -0.21166 -0.0873 z m -9.87954,-3.07446 a 7.7681667,7.7681667 0 0 1 1.08743,-0.57679 5.9319583,5.9319583 0 0 0 2.64584,3.65125 h -0.09 -0.21167 a 3.6591875,3.6591875 0 0 1 -2.5691,-1.05833 c -0.19315,-0.1905 -0.55827,-0.70644 -0.86784,-2.02142 z m 4.45558,0.82286 a 3.6882917,3.6882917 0 0 1 -0.99483,-1.35467 3.5612917,3.5612917 0 0 1 0.8546,0.51329 5.8208333,5.8208333 0 0 0 0.14023,0.84138 z m 4.84452,-0.84138 a 3.5612917,3.5612917 0 0 1 0.8546,-0.51329 3.6591875,3.6591875 0 0 1 -0.99483,1.35467 5.5271458,5.5271458 0 0 0 0.14023,-0.84138 z m 3.91848,4.49792 a 5.889625,5.889625 0 0 0 1.11919,-0.87048 5.3763333,5.3763333 0 0 0 1.2012,-2.19075 c 0.635,0.52917 1.19592,1.04246 1.57428,1.40494 a 26.220208,26.220208 0 0 1 -2.69082,2.25954 7.0908333,7.0908333 0 0 0 -1.21443,-0.6006 z m -16.72961,-1.65894 c 0.381,-0.35719 0.94192,-0.88635 1.5875,-1.40229 a 5.3392917,5.3392917 0 0 0 1.2118,2.1934 5.6276875,5.6276875 0 0 0 1.11918,0.87048 6.9744167,6.9744167 0 0 0 -1.21179,0.6006 25.381479,25.381479 0 0 1 -2.70669,-2.26219 z m 6.04838,13.10481 a 12.641792,12.641792 0 0 0 3.18823,-3.06916 l 0.0609,-0.0847 a 13.043958,13.043958 0 0 0 1.02129,-1.67217 12.750271,12.750271 0 0 0 1.016,1.68275 c 0.0185,0.0291 0.0397,0.0556 0.0609,0.0847 a 12.599458,12.599458 0 0 0 3.18823,3.06917 c -0.11377,0 -0.22754,0 -0.34131,0 a 4.826,4.826 0 0 1 -3.175,-1.19856 l -0.6985,-0.61384 a 0.06085417,0.06085417 0 0 0 -0.0503,-0.0185 0.0714375,0.0714375 0 0 0 -0.045,0.0159 l -0.6985,0.61384 a 4.8127708,4.8127708 0 0 1 -3.175,1.19856 c -0.11377,0 -0.22754,0 -0.34132,0 z"
           id="path135584" />
      </g>
    </symbol>
    <symbol
       id="triquetra_trinity_knot_outline"
       style="stroke:#000000;stroke-opacity:1">
      <g
         id="triquetra_trinity_knot_outline_transform"
         transform="matrix(38.693966,0,0,38.693966,-7542.8153,-9439.3483)">
        <path
           style="stroke-width:0.264583"
           d="m 163.06616,254.50232 c 0.0344,0 0.0661,0 0.10055,0 h 0.10054 l 0.0979,0.0265 c 0.0344,0 0.0661,0.0185 0.0979,0.0317 0.0317,0.0132 0.0635,0.0317 0.0952,0.0476 l 0.0873,0.0503 a 0.68791667,0.68791667 0 0 1 0.0873,0.0661 0.52916667,0.52916667 0 0 1 0.0608,0.0476 13.55725,13.55725 0 0 1 3.80471,6.43995 11.265958,11.265958 0 0 1 6.67014,9.35302 13.607521,13.607521 0 0 1 2.30717,5.95842 v 0.0132 a 1.0186458,1.0186458 0 0 1 0,0.127 c 0,0.0291 0,0.0556 0,0.082 a 0.74877083,0.74877083 0 0 1 -0.0185,0.11113 c 0,0.0317 0,0.0635 -0.0159,0.0953 -0.0159,0.0317 -0.0238,0.0609 -0.037,0.0926 -0.0132,0.0317 -0.0238,0.0661 -0.037,0.0952 a 0.650875,0.650875 0 0 1 -0.0582,0.09 c -0.0159,0.0265 -0.0317,0.0556 -0.0503,0.082 a 1.0874375,1.0874375 0 0 1 -0.0767,0.0794 0.50270833,0.50270833 0 0 1 -0.0635,0.0661 0.555625,0.555625 0 0 1 -0.0794,0.0582 1.0980208,1.0980208 0 0 1 -0.09,0.0635 l -0.0767,0.0344 a 0.77258333,0.77258333 0 0 1 -0.11642,0.0503 13.522854,13.522854 0 0 1 -3.84175,0.63764 11.226271,11.226271 0 0 1 -17.88054,0 13.522854,13.522854 0 0 1 -3.84175,-0.63764 0.77258333,0.77258333 0 0 1 -0.11642,-0.0503 l -0.0767,-0.0344 a 1.0980208,1.0980208 0 0 1 -0.09,-0.0635 0.555625,0.555625 0 0 1 -0.0794,-0.0582 0.50270833,0.50270833 0 0 1 -0.0635,-0.0661 1.0874375,1.0874375 0 0 1 -0.0767,-0.0794 c -0.0185,-0.0265 -0.0344,-0.0556 -0.0503,-0.082 a 0.650875,0.650875 0 0 1 -0.0582,-0.09 c -0.0132,-0.0291 -0.0238,-0.0635 -0.037,-0.0952 -0.0132,-0.0317 -0.0265,-0.0609 -0.037,-0.0926 -0.0106,-0.0317 0,-0.0635 -0.0159,-0.0953 a 0.74877083,0.74877083 0 0 1 -0.0185,-0.11113 c 0,-0.0265 0,-0.0529 0,-0.082 a 1.0186458,1.0186458 0 0 1 0,-0.127 v -0.0132 a 13.607521,13.607521 0 0 1 2.30717,-5.95842 11.265958,11.265958 0 0 1 6.65427,-9.35302 13.514917,13.514917 0 0 1 3.80471,-6.42143 0.52916667,0.52916667 0 0 1 0.0608,-0.0476 0.68791667,0.68791667 0 0 1 0.0873,-0.0661 l 0.0873,-0.0503 c 0.0318,-0.0159 0.0635,-0.0344 0.0952,-0.0476 0.0318,-0.0132 0.0635,-0.0212 0.0979,-0.0317 l 0.0979,-0.0265 h 0.10054 c 0.0344,0 0.0661,0 0.10054,0 m -2.05845,5.92138 a 11.064875,11.064875 0 0 1 4.11691,0 11.358562,11.358562 0 0 0 -2.05846,-3.35757 11.427354,11.427354 0 0 0 -2.05845,3.35757 m -0.79375,4.54289 a 13.7795,13.7795 0 0 1 5.7097,0 c 0,-0.10054 0,-0.20373 0,-0.30427 a 11.427354,11.427354 0 0 0 -0.15875,-1.905 9.1360625,9.1360625 0 0 0 -5.41337,0 11.451167,11.451167 0 0 0 -0.15875,1.905 c 0,0.10054 0,0.20373 0,0.30427 m -5.29167,2.413 a 13.633979,13.633979 0 0 1 3.20411,-1.78329 c -0.0212,-0.31221 -0.0318,-0.62177 -0.0318,-0.93398 0,-0.31221 0,-0.56621 0.0291,-0.84931 a 9.2048542,9.2048542 0 0 0 -3.20146,3.56658 m 16.30891,0 a 9.2048542,9.2048542 0 0 0 -3.19087,-3.56658 c 0.0185,0.2831 0.0291,0.56621 0.0291,0.84931 0,0.2831 0,0.62177 -0.0317,0.93398 a 13.633979,13.633979 0 0 1 3.20411,1.78329 m -8.15446,4.87892 a 11.522604,11.522604 0 0 0 2.60879,-5.18054 11.641667,11.641667 0 0 0 -5.21758,0 11.522604,11.522604 0 0 0 2.60879,5.18054 m -7.8396,3.88408 a 11.472333,11.472333 0 0 0 6.30237,-2.42623 13.668375,13.668375 0 0 1 -3.08769,-5.96371 11.612562,11.612562 0 0 0 -4.49791,3.52161 c 0,0.0661 0,0.13229 0,0.20108 a 9.0672708,9.0672708 0 0 0 1.28852,4.66725 m 15.67921,0 a 9.0593333,9.0593333 0 0 0 1.28852,-4.66725 c 0,-0.0688 0,-0.13494 0,-0.20108 a 11.612562,11.612562 0 0 0 -4.49792,-3.52161 13.668375,13.668375 0 0 1 -3.09827,5.96371 11.456458,11.456458 0 0 0 6.30237,2.42623 m 2.42623,-0.0847 q 0.49742,-0.0714 0.98425,-0.18256 a 11.609917,11.609917 0 0 0 -0.40216,-1.4314 11.255375,11.255375 0 0 1 -0.57944,1.61396 m -20.53167,0 a 11.220979,11.220979 0 0 1 -0.58472,-1.61395 11.570229,11.570229 0 0 0 -0.40481,1.42875 c 0.32543,0.0767 0.65352,0.13493 0.98425,0.18256 m 10.26847,4.54819 a 9.0937292,9.0937292 0 0 0 6.28915,-2.52148 13.583708,13.583708 0 0 1 -6.28915,-2.88925 13.583708,13.583708 0 0 1 -6.28914,2.88925 9.0884375,9.0884375 0 0 0 6.28914,2.52148 m 0,-26.19375 h -0.0952 l -0.0185,0.0688 v -0.0661 h -0.0953 a 0.5953125,0.5953125 0 0 0 -0.0926,0.0238 v 0 l -0.10054,0.0344 -0.09,0.0423 v 0 h -0.0159 c -0.0265,0.0159 -0.0529,0.0291 -0.0794,0.0476 a 0.89958333,0.89958333 0 0 0 -0.0794,0.0609 h -0.0132 l -0.0212,0.0159 -0.0423,0.0344 a 13.655146,13.655146 0 0 0 -3.84704,6.46907 11.310937,11.310937 0 0 0 -6.67808,9.37683 13.702771,13.702771 0 0 0 -2.30452,5.97429 c 0,0 0,0.0132 0,0.0159 0,0.003 0,0.0741 0,0.11113 v 0.0503 a 0.2143125,0.2143125 0 0 0 0,0.0582 c 0,0.0317 0,0.0635 0.0132,0.0926 v 0.0265 0.0291 c 0,0.0238 0,0.0476 0.0132,0.0688 0.0132,0.0212 0.0185,0.0503 0.0265,0.0714 v 0.0291 0.0291 c 0,0.0238 0.0185,0.0476 0.0291,0.0714 0.0106,0.0238 0.0291,0.0476 0.0423,0.0714 l 0.0185,0.0238 v 0.0265 a 0.49741667,0.49741667 0 0 0 0.0423,0.0608 0.4524375,0.4524375 0 0 0 0.0582,0.0662 l 0.0212,0.0185 0.0185,0.0238 a 0.428625,0.428625 0 0 0 0.0503,0.0476 0.48683333,0.48683333 0 0 0 0.0582,0.045 l 0.0238,0.0159 0.0238,0.0185 0.0714,0.0503 0.0556,0.0238 h 0.0265 0.0185 a 0.74877083,0.74877083 0 0 0 0.10583,0.045 13.528146,13.528146 0 0 0 3.8391,0.64558 11.295062,11.295062 0 0 0 17.94934,0 13.573125,13.573125 0 0 0 3.82852,-0.64029 v 0 a 0.87047917,0.87047917 0 0 0 0.10319,-0.045 h 0.0185 0.0265 l 0.0556,-0.0238 0.0714,-0.0503 0.0238,-0.0185 0.0238,-0.0159 a 0.48683333,0.48683333 0 0 0 0.0582,-0.045 0.428625,0.428625 0 0 0 0.0503,-0.0476 l 0.0185,-0.0238 0.0212,-0.0185 a 0.4524375,0.4524375 0 0 0 0.0582,-0.0662 0.49741667,0.49741667 0 0 0 0.0423,-0.0608 l 0.0132,-0.0265 0.0185,-0.0238 c 0,-0.0238 0.0291,-0.045 0.0423,-0.0714 0.0132,-0.0265 0.0212,-0.0476 0.0291,-0.0714 v -0.0291 -0.0291 c 0,-0.0212 0.0185,-0.045 0.0265,-0.0714 0.008,-0.0265 0,-0.045 0,-0.0688 v -0.0291 -0.0265 c 0,-0.0291 0,-0.0609 0,-0.09 a 0.23283333,0.23283333 0 0 0 0,-0.0609 v -0.0503 c 0,-0.037 0,-0.0767 0,-0.11377 a 13.726583,13.726583 0 0 0 -2.30717,-5.98752 11.308292,11.308292 0 0 0 -6.56696,-9.38212 13.615458,13.615458 0 0 0 -3.81529,-6.41615 l -0.0423,-0.0344 -0.0212,-0.0159 h -0.0132 a 0.89958333,0.89958333 0 0 0 -0.0794,-0.0609 0.60325,0.60325 0 0 0 -0.0794,-0.045 v 0 0 l -0.09,-0.0423 -0.09,-0.0291 h -0.0238 c -0.0317,0 -0.0608,-0.0185 -0.0926,-0.0238 h -0.0952 -0.0265 -0.0926 z m -1.95262,5.92666 a 11.342687,11.342687 0 0 1 1.95262,-3.175 11.342687,11.342687 0 0 1 1.95263,3.175 11.170708,11.170708 0 0 0 -3.90525,0 z m -0.69321,2.47121 a 9.0937292,9.0937292 0 0 1 5.29167,0 11.488208,11.488208 0 0 1 0.15081,1.85208 c 0,0.0609 0,0.12171 0,0.18257 v 0.0556 a 13.776854,13.776854 0 0 0 -5.58271,0 v -0.0529 c 0,-0.0609 0,-0.12171 0,-0.18257 a 11.488208,11.488208 0 0 1 0.15081,-1.85207 z m -5.31812,4.34975 a 9.1069583,9.1069583 0 0 1 2.93687,-3.21469 c 0,0.26459 -0.0212,0.49742 -0.0212,0.71967 0,0.28575 0,0.58473 0.0291,0.889 a 13.787437,13.787437 0 0 0 -2.94481,1.60602 z m 12.99104,-1.60602 c 0.0185,-0.30427 0.0291,-0.60325 0.0291,-0.889 0,-0.22225 0,-0.46037 -0.0212,-0.71967 a 9.1069583,9.1069583 0 0 1 2.93687,3.21469 13.787437,13.787437 0 0 0 -2.94481,-1.60602 z m -7.54856,1.5875 a 11.546417,11.546417 0 0 1 5.05883,0 11.451167,11.451167 0 0 1 -2.52942,5.02708 11.451167,11.451167 0 0 1 -2.52941,-5.02708 z m -6.53521,4.15925 a 11.509375,11.509375 0 0 1 4.38414,-3.43958 13.771562,13.771562 0 0 0 3.03742,5.84993 11.395604,11.395604 0 0 1 -6.17008,2.36538 9.032875,9.032875 0 0 1 -1.25677,-4.59846 c 0,-0.0423 0,-0.082 0,-0.12435 v -0.0529 z m 10.69181,2.41035 a 13.771562,13.771562 0 0 0 3.03742,-5.86316 11.509375,11.509375 0 0 1 4.38414,3.43958 v 0.0529 c 0,0.0423 0,0.082 0,0.12436 a 9.032875,9.032875 0 0 1 -1.25677,4.59845 11.377083,11.377083 0 0 1 -6.16479,-2.35214 z m 8.73125,2.26484 a 11.557,11.557 0 0 0 0.47625,-1.32292 11.469687,11.469687 0 0 1 0.32015,1.16152 c -0.26459,0.0582 -0.52917,0.10848 -0.79375,0.14817 z m -21.54502,-0.14817 a 11.469687,11.469687 0 0 1 0.33073,-1.16152 11.557,11.557 0 0 0 0.47625,1.32292 c -0.26459,-0.0423 -0.52917,-0.0926 -0.79375,-0.14817 z m 5.02708,2.29923 a 13.705417,13.705417 0 0 0 6.15156,-2.84692 13.681604,13.681604 0 0 0 6.14628,2.84957 9.0381667,9.0381667 0 0 1 -12.29519,0 z"
           id="path135580" />
      </g>
    </symbol>
    <symbol
       id="triskeles_outline_"
       style="stroke:#000000;stroke-opacity:1">
      <g
         id="triskeles_outline__transform"
         transform="matrix(50.764343,0,0,50.764343,-9424.7816,-1187.0681)">
        <path
           style="stroke-width:0.264583"
           d="m 163.02331,55.767359 a 4.1883542,4.1883542 0 0 1 1.10861,0.148167 5.0561875,5.0561875 0 0 1 3.57716,6.183312 6.1198125,6.1198125 0 0 1 -1.016,2.116667 c -0.50006,0.650875 -1.12183,1.164167 -1.52664,1.899708 -0.0397,0.07937 -0.09,0.174625 -0.13494,0.264584 -0.045,0.08996 -0.082,0.187854 -0.11906,0.283104 -0.037,0.09525 -0.0688,0.187854 -0.10054,0.28575 a 4.2333333,4.2333333 0 0 0 -0.17992,0.994833 3.96875,3.96875 0 0 0 3.57188,4.180417 c 0.0873,0 0.17197,0 0.26458,0 a 2.9395208,2.9395208 0 0 0 2.91042,-2.677584 2.1404792,2.1404792 0 0 0 -1.94205,-2.315104 0.91545833,0.91545833 0 0 0 -0.1217,0 1.539875,1.539875 0 0 0 -0.52917,0.0926 1.4975417,1.4975417 0 0 0 -0.97367,1.272646 0.97102083,0.97102083 0 0 0 0.23813,0.724959 0.98160417,0.98160417 0 0 0 0.67204,0.351895 h 0.0397 a 0.52916667,0.52916667 0 0 0 0.0926,0 l 0.37306,2.084917 a 2.6458333,2.6458333 0 0 1 -0.46302,0.03969 h -0.21696 a 3.1035625,3.1035625 0 0 1 -2.83104,-3.368146 3.6247917,3.6247917 0 0 1 2.3495,-3.071813 3.683,3.683 0 0 1 1.26206,-0.248708 c 0.0979,0 0.19844,0 0.29634,0 a 4.2650833,4.2650833 0 0 1 3.87085,4.611687 5.0588333,5.0588333 0 0 1 -5.02708,4.609042 c -0.14817,0 -0.29634,0 -0.44715,-0.01852 -2.33627,-0.206374 -4.38943,-1.897061 -5.19112,-4.079874 -0.26459,-0.682625 -0.38365,-1.410229 -0.71702,-2.058458 a 3.9422917,3.9422917 0 0 0 -3.47134,-2.005542 3.603625,3.603625 0 0 0 -0.84137,0.0979 3.5268958,3.5268958 0 0 0 -2.26483,1.640417 2.8389792,2.8389792 0 0 0 -0.0344,2.749021 2.4156458,2.4156458 0 0 0 2.03464,1.190625 2.0452292,2.0452292 0 0 0 0.39952,-0.03969 1.8044583,1.8044583 0 0 0 1.26207,-0.915458 1.3784792,1.3784792 0 0 0 -0.16934,-1.510771 1.1562292,1.1562292 0 0 0 -0.84402,-0.362479 0.99747917,0.99747917 0 0 0 -0.61648,0.203729 l -1.63248,-1.322917 a 3.222625,3.222625 0 0 1 2.35479,-1.010708 3.0559375,3.0559375 0 0 1 1.08744,0.198437 c 1.94204,0.74348 2.56646,3.243792 1.5875,4.971521 a 3.6142083,3.6142083 0 0 1 -1.05833,1.166811 4.2545,4.2545 0 0 1 -5.92137,-1.045104 5.0535417,5.0535417 0 0 1 1.24089,-7.035271 c 0.14023,-0.0979 0.28575,-0.1905 0.43392,-0.264584 a 5.8208333,5.8208333 0 0 1 0.79375,-0.383645 5.9981042,5.9981042 0 0 1 2.22779,-0.436563 5.4980417,5.4980417 0 0 1 0.83344,0.0635 c 0.84931,0.132292 1.64042,0.460375 2.49237,0.460375 a 3.159125,3.159125 0 0 0 0.47096,-0.0344 4.0454792,4.0454792 0 0 0 0.79375,-0.206375 3.9237708,3.9237708 0 0 0 0.73025,-0.365125 3.7544375,3.7544375 0 0 0 0.64559,-0.510646 3.9422917,3.9422917 0 0 0 1.02129,-1.79652 2.9421667,2.9421667 0 0 0 -2.07434,-3.598334 2.2489583,2.2489583 0 0 0 -0.5715,-0.08731 2.143125,2.143125 0 0 0 -2.05845,1.5875 1.4737292,1.4737292 0 0 0 -0.0265,0.653521 1.5028333,1.5028333 0 0 0 1.09272,1.180041 0.95779167,0.95779167 0 0 0 0.26459,0.0344 0.98689583,0.98689583 0 0 0 0.94985,-0.732896 0.52916667,0.52916667 0 0 0 0.0159,-0.134937 h 2.11667 a 2.7834167,2.7834167 0 0 1 -0.0847,0.672041 3.095625,3.095625 0 0 1 -3.80736,2.20398 3.6247917,3.6247917 0 0 1 -2.62202,-2.836334 3.5454167,3.5454167 0 0 1 0.0635,-1.5875 4.2571458,4.2571458 0 0 1 4.09575,-3.156479 m 0,-0.06615 v 0 a 4.3232917,4.3232917 0 0 0 -4.15925,3.204104 3.6327292,3.6327292 0 0 0 -0.0741,1.606021 3.6882917,3.6882917 0 0 0 2.67494,2.910417 3.175,3.175 0 0 0 3.88673,-2.248958 2.8231042,2.8231042 0 0 0 0.0873,-0.690563 0.06614583,0.06614583 0 0 0 -0.0661,-0.06615 h -2.11666 a 0.06614583,0.06614583 0 0 0 -0.0662,0.06615 0.587375,0.587375 0 0 1 0,0.119063 0.92339583,0.92339583 0 0 1 -0.88636,0.682625 0.9604375,0.9604375 0 0 1 -0.24341,-0.03175 1.4393333,1.4393333 0 0 1 -1.03717,-1.129771 1.4234583,1.4234583 0 0 1 0.0265,-0.624417 2.0558125,2.0558125 0 0 1 2.53471,-1.4605 2.8654375,2.8654375 0 0 1 2.02935,3.513667 3.8523333,3.8523333 0 0 1 -1.65364,2.25425 3.7994167,3.7994167 0 0 1 -0.71967,0.357187 3.7041667,3.7041667 0 0 1 -0.77258,0.203729 2.9104167,2.9104167 0 0 1 -0.46038,0.0344 6.2600417,6.2600417 0 0 1 -1.52664,-0.264583 c -0.30957,-0.07673 -0.62971,-0.156104 -0.9578,-0.206375 a 5.1831875,5.1831875 0 0 0 -0.84137,-0.06615 6.1938958,6.1938958 0 0 0 -3.06652,0.828146 c -0.14817,0.08731 -0.29633,0.179917 -0.43656,0.280458 a 5.1170417,5.1170417 0 0 0 -1.25942,7.127875 4.3285833,4.3285833 0 0 0 6.01662,1.058334 3.7041667,3.7041667 0 0 0 1.08215,-1.18798 3.7729583,3.7729583 0 0 0 0.24077,-3.106208 3.2041042,3.2041042 0 0 0 -1.85208,-1.963208 3.1220833,3.1220833 0 0 0 -1.11125,-0.201084 3.2967083,3.2967083 0 0 0 -2.41565,1.034521 0.0555625,0.0555625 0 0 0 -0.0159,0.04763 0.0555625,0.0555625 0 0 0 0.0238,0.04763 l 1.05834,0.870479 0.56356,0.460375 a 0.0714375,0.0714375 0 0 0 0.0423,0.01587 0.06614583,0.06614583 0 0 0 0.0423,-0.01587 0.92339583,0.92339583 0 0 1 0.59002,-0.182562 1.0795,1.0795 0 0 1 0.79375,0.341312 1.3070417,1.3070417 0 0 1 0.16139,1.436688 1.7330208,1.7330208 0 0 1 -1.21708,0.881062 2.1007917,2.1007917 0 0 1 -0.38629,0.03704 2.3574375,2.3574375 0 0 1 -1.97644,-1.158875 2.7596042,2.7596042 0 0 1 0.0344,-2.682875 3.4845625,3.4845625 0 0 1 2.2225,-1.608666 3.5586458,3.5586458 0 0 1 0.8255,-0.09525 3.8787917,3.8787917 0 0 1 3.41048,2.002895 7.3104375,7.3104375 0 0 1 0.46567,1.277938 c 0.0767,0.264583 0.15346,0.529167 0.24871,0.772583 0.83079,2.262188 2.93952,3.918479 5.24668,4.119563 0.15082,0.01323 0.30427,0.02117 0.45244,0.02117 a 5.1514375,5.1514375 0 0 0 5.09588,-4.669896 4.3365208,4.3365208 0 0 0 -3.92377,-4.688416 c -0.10055,0 -0.20109,0 -0.30163,0 a 3.7597292,3.7597292 0 0 0 -1.28587,0.227541 3.6856458,3.6856458 0 0 0 -2.38125,3.127375 3.175,3.175 0 0 0 2.89189,3.439584 q 0.11113,0 0.22225,0 a 2.5505833,2.5505833 0 0 0 0.47625,-0.04233 0.06614583,0.06614583 0 0 0 0.0529,-0.07673 l -0.37571,-2.082271 a 0.06614583,0.06614583 0 0 0 -0.0265,-0.04233 0.0635,0.0635 0 0 0 -0.0661,-0.0079 v 0 h -0.0794 -0.0344 a 0.92339583,0.92339583 0 0 1 -0.62706,-0.328084 0.904875,0.904875 0 0 1 -0.20902,-0.669396 1.4340417,1.4340417 0 0 1 0.92869,-1.219729 1.4657917,1.4657917 0 0 1 0.50271,-0.08731 h 0.11641 a 2.079625,2.079625 0 0 1 1.88119,2.246312 2.88925,2.88925 0 0 1 -2.8575,2.616729 c -0.0847,0 -0.16933,0 -0.26458,0 a 3.8973125,3.8973125 0 0 1 -3.50309,-4.116916 4.2121667,4.2121667 0 0 1 0.17727,-0.981604 c 0.0291,-0.08731 0.0608,-0.182563 0.10055,-0.280459 0.0397,-0.0979 0.0688,-0.179916 0.11641,-0.280458 0.0476,-0.100542 0.0926,-0.193146 0.13229,-0.264583 a 6.4690625,6.4690625 0 0 1 0.92869,-1.203855 c 0.20109,-0.216958 0.40481,-0.4445 0.59267,-0.687916 a 6.1991875,6.1991875 0 0 0 1.02658,-2.116667 5.1170417,5.1170417 0 0 0 -3.61685,-6.281208 4.2994792,4.2994792 0 0 0 -1.13242,-0.150813 z"
           id="path135612" />
      </g>
    </symbol>
    <symbol
       id="wheel_of_taranis_outline"
       style="stroke:#000000;stroke-opacity:1">
      <g
         id="wheel_of_taranis_outline_transform"
         transform="matrix(44.650952,0,0,44.650952,-7046.2902,-2732.4756)">
        <path
           style="stroke-width:0.264583"
           d="m 162.15178,96.83485 a 11.641667,11.641667 0 1 1 -11.64167,11.64167 11.654896,11.654896 0 0 1 11.64167,-11.64167 m 5.18583,10.58334 h 4.27832 a 9.5382292,9.5382292 0 0 0 -8.40582,-8.40582 v 4.27832 a 5.3154792,5.3154792 0 0 1 4.1275,4.1275 m -14.64998,0 h 4.27832 a 5.3154792,5.3154792 0 0 1 4.1275,-4.1275 v -4.27832 a 9.5382292,9.5382292 0 0 0 -8.40582,8.40582 m 9.46415,4.23333 a 3.175,3.175 0 1 0 -3.175,-3.175 3.175,3.175 0 0 0 3.175,3.175 m 1.05833,6.28915 a 9.5382292,9.5382292 0 0 0 8.40582,-8.40582 h -4.27832 a 5.3154792,5.3154792 0 0 1 -4.1275,4.1275 v 4.27832 m -2.11666,0 v -4.27832 a 5.3154792,5.3154792 0 0 1 -4.1275,-4.1275 h -4.27832 a 9.5382292,9.5382292 0 0 0 8.40582,8.40582 M 162.15178,96.774 a 11.707812,11.707812 0 1 0 11.70781,11.70252 11.721042,11.721042 0 0 0 -11.70781,-11.70781 z m 1.12448,6.46377 v -4.15131 a 9.525,9.525 0 0 1 8.26558,8.26558 h -4.15131 a 5.3419375,5.3419375 0 0 0 -4.11427,-4.11427 z m -10.51454,4.11427 a 9.525,9.525 0 0 1 8.26558,-8.26558 v 4.15131 a 5.3419375,5.3419375 0 0 0 -4.11427,4.11427 z m 9.39006,4.23333 a 3.1088542,3.1088542 0 1 1 3.10885,-3.10885 3.1115,3.1115 0 0 1 -3.10885,3.10885 z m 5.23875,-1.98437 h 4.15131 a 9.525,9.525 0 0 1 -8.26558,8.26558 v -4.15131 a 5.3419375,5.3419375 0 0 0 4.11427,-4.11427 z m -14.62881,0 h 4.15131 a 5.3419375,5.3419375 0 0 0 4.11427,4.11427 v 4.15131 a 9.525,9.525 0 0 1 -8.26558,-8.26558 z"
           id="path135608" />
      </g>
    </symbol>
    <symbol
       id="Original_artists_website">
      <text
         xml:space="preserve"
         transform="matrix(0.44857998,0,0,0.44857998,5301.7159,1432.4555)"
         id="0"
         style="font-style:normal;font-weight:normal;font-size:40px;line-height:1.25;font-family:sans-serif;white-space:pre;shape-inside:url(#rect143417);fill:#000000;fill-opacity:1;stroke:none"><tspan
           x="-31550"
           y="-7814.6094"
           id="tspan160985">https://www.artstation.com/marketplace/p/eDPD/s-y-m-b-o-l-i-k-o-n-celtics-symbols-pack</tspan></text>
    </symbol>
  </defs>
  <g
     inkscape:label="Layer 1"
     inkscape:groupmode="layer"
     id="layer1">
    <use
       xlink:href="#example1_"
       id="use137125" />
    <use
       xlink:href="#example2"
       id="use137158" />
    <use
       xlink:href="#brigid_black"
       id="use138695" />
    <use
       xlink:href="#bull_black"
       id="use138713" />
    <use
       xlink:href="#cross_black"
       id="use138737" />
    <use
       xlink:href="#double_spiral_black"
       id="use138768" />
    <use
       xlink:href="#druid_sigil_black"
       id="use138827" />
    <use
       xlink:href="#sailors_knot_black"
       id="use138882" />
    <use
       xlink:href="#tree_of_life_black"
       id="use138944" />
    <use
       xlink:href="#triquetra_trinity_knot_black"
       id="use139020" />
    <use
       xlink:href="#triskeles_black"
       id="use139110" />
    <use
       xlink:href="#wheel_of_taranis_black"
       id="use139206" />
    <use
       xlink:href="#brigid_outline"
       id="use139311" />
    <use
       xlink:href="#bull_outline"
       id="use139425" />
    <use
       xlink:href="#cross_outline"
       id="use139545" />
    <use
       xlink:href="#double_spiral_outline_"
       id="use139671" />
    <use
       xlink:href="#druid_sigil_outline"
       id="use139803" />
    <use
       xlink:href="#sailors_knot_outline"
       id="use139941" />
    <use
       xlink:href="#tree_of_life_outline"
       id="use140085" />
    <use
       xlink:href="#triquetra_trinity_knot_outline"
       id="use140235" />
    <use
       xlink:href="#triskeles_outline_"
       id="use140391" />
    <use
       xlink:href="#wheel_of_taranis_outline"
       id="use140553" />
    <use
       xlink:href="#Original_artists_website"
       id="use160763" />
  </g>
</svg>
